<svg xmlns="http://www.w3.org/2000/svg" xmlns:xlink="http://www.w3.org/1999/xlink" fill="none" version="1.1" width="73" height="73" viewBox="0 0 73 73"><g><g><path d="M45.63818984375,28.422907125000002Q45.743689843750005,28.317418125,45.800789843749996,28.179590125Q45.85788984375,28.041762125,45.85788984375,27.892578125Q45.85788984375,27.818709625,45.84338984375,27.746260125Q45.82898984375,27.673811125,45.800789843749996,27.605565125Q45.77248984375,27.537320125,45.73148984375,27.475900125Q45.69038984375,27.414481125000002,45.63818984375,27.362248125Q45.585889843749996,27.310015125,45.524489843750004,27.268976125000002Q45.46308984375,27.227937125,45.39488984375,27.199668125Q45.32658984375,27.171400125,45.25418984375,27.156989125Q45.18168984375,27.142578125,45.10788984375,27.142578125Q44.95868984375,27.142578125,44.82078984375,27.199668125Q44.68298984375,27.256759125,44.57748984375,27.362249124999998L44.57698984375,27.362775125L27.36210284375,44.577678125L27.36175884375,44.578078125000005Q27.25626984375,44.683578125,27.19917984375,44.821378124999995Q27.14208984375,44.959178125,27.14208984375,45.108378125Q27.14208984375,45.182278124999996,27.15650084375,45.254678125Q27.17091184375,45.327178125,27.19917984375,45.395378125Q27.22744884375,45.463678125,27.268487843750002,45.525078125Q27.30952684375,45.586478125,27.36175984375,45.638678125Q27.413992843750002,45.690978125,27.47541184375,45.731978125Q27.53683184375,45.773078125,27.60507684375,45.801278124999996Q27.67332284375,45.829578125,27.74577184375,45.843978125Q27.81822134375,45.858378125,27.89208984375,45.858378125Q28.04127484375,45.858378125,28.17910284375,45.801278124999996Q28.31693184375,45.744178125000005,28.42242084375,45.638778125L28.42276484375,45.638378125L45.637689843749996,28.423433125L45.63818984375,28.422907125000002L45.63818984375,28.422907125000002Z" fill-rule="evenodd" fill="#FFFFFF" fill-opacity="1"/></g><g><path d="M28.42257384375,27.362402125L45.63828984375,44.578078125000005Q45.74378984375,44.683578125,45.80088984375,44.821378124999995Q45.85788984375,44.959278125,45.85788984375,45.108378125Q45.85788984375,45.182278124999996,45.84348984375,45.254778125Q45.82908984375,45.327178125,45.80088984375,45.395478125Q45.77258984375,45.463678125,45.73148984375,45.525078125Q45.69048984375,45.586478125,45.63828984375,45.638778125Q45.58598984375,45.690978125,45.52458984375,45.731978125Q45.46318984375,45.773078125,45.39498984375,45.801378125Q45.32668984375,45.829578125,45.25428984375,45.843978125Q45.181789843749996,45.858378125,45.10788984375,45.858378125Q44.95878984375,45.858378125,44.820889843749995,45.801378125Q44.68308984375,45.744278125,44.577589843750005,45.638778125L27.36175984375,28.422908125Q27.25627084375,28.317419125,27.19917984375,28.179591125Q27.14208984375,28.041762125,27.14208984375,27.892578125Q27.14208984375,27.818709625,27.15650084375,27.746260125Q27.17091184375,27.673811125,27.19917984375,27.605565125Q27.22744884375,27.537320125,27.268487843750002,27.475900125Q27.30952684375,27.414481125000002,27.36175984375,27.362248125Q27.413992843750002,27.310015125,27.47541184375,27.268976125000002Q27.53683184375,27.227937125,27.60507684375,27.199668125Q27.67332284375,27.171400125,27.74577184375,27.156989125Q27.81822134375,27.142578125,27.89208984375,27.142578125Q28.04127384375,27.142578125,28.17910284375,27.199668125Q28.31693084375,27.256759125,28.42241984375,27.362248125L28.42257384375,27.362402125Z" fill-rule="evenodd" fill="#FFFFFF" fill-opacity="1"/></g><g style="opacity:0;"></g></g></svg>