<svg xmlns="http://www.w3.org/2000/svg" xmlns:xlink="http://www.w3.org/1999/xlink" fill="none" version="1.1" viewBox="0 0 24 24"><g><g><g><g><path d="M19.6014,4.3986Q16.4528,1.25,12,1.25Q7.5472,1.25,4.3986,4.3986Q1.25,7.5472,1.2500010000000001,12Q1.25,16.4528,4.3986,19.6014Q7.5472,22.75,12,22.75Q16.4528,22.75,19.6014,19.6014Q22.75,16.4528,22.75,12Q22.75,7.5472,19.6014,4.3986ZM5.4592600000000004,5.4592600000000004Q8.168520000000001,2.75,12,2.750001Q15.8315,2.75,18.5407,5.4592600000000004Q21.25,8.168520000000001,21.25,12Q21.25,15.8315,18.5407,18.5407Q15.8315,21.25,12,21.25Q8.16853,21.25,5.4592600000000004,18.5407Q2.75,15.8315,2.750001,12Q2.75,8.16853,5.4592600000000004,5.4592600000000004Z" fill-rule="evenodd" fill="#FFFFFF" fill-opacity="1"/></g><g><path d="M7.977559375,20.2503Q6.787109375,16.2228,6.787109375,12Q6.787109375,7.77718,7.977557375,3.749676Q7.905111375,3.747545,7.834414375,3.7315810000000003Q7.763717375,3.715617,7.697385375,3.686412Q7.631053575,3.657206,7.571541375,3.6158390000000002Q7.512029175,3.574472,7.461539275,3.522475Q7.411049375,3.470478,7.371450375,3.409776Q7.331851375,3.349073,7.304608375,3.281911Q7.2773653750000005,3.214749,7.263487375,3.143613Q7.249609375,3.072477,7.249609375,3Q7.249609375,2.9261315,7.264020375,2.853682Q7.278431375,2.781233,7.306699375,2.712987Q7.334968375,2.644742,7.376007375,2.583322Q7.417046375,2.521903,7.469279375,2.46967Q7.521512275,2.417437,7.582931775,2.376398Q7.644351375,2.335359,7.712596375,2.30709Q7.780842375,2.278822,7.853291375,2.264411Q7.925740375,2.25,7.999609375,2.25L8.999609375,2.25Q9.121519375,2.25,9.237149375,2.288609Q9.378649375,2.335859,9.491299375,2.433663Q9.603959375,2.531467,9.670599375,2.664936Q9.737249375000001,2.798404,9.747749375,2.9472167Q9.758249375,3.0960296,9.710999375,3.237532Q8.287109375,7.5019,8.287109375,12Q8.287109375,16.4981,9.710999375,20.7625Q9.749609375,20.8781,9.749609375,21Q9.749609375,21.0739,9.735199375,21.1463Q9.720789374999999,21.2188,9.692519375,21.287Q9.664249375,21.3553,9.623209375,21.4167Q9.582169375,21.4781,9.529939375,21.5303Q9.477709375,21.5826,9.416289375,21.6236Q9.354869375,21.6646,9.286619375,21.6929Q9.218379375,21.7212,9.145929375,21.7356Q9.073479375,21.75,8.999609375,21.75L7.999609375,21.75Q7.925740375,21.75,7.853291375,21.7356Q7.780842375,21.7212,7.712596375,21.6929Q7.644351375,21.6646,7.582931775,21.6236Q7.521512275,21.5826,7.469279375,21.5303Q7.417046375,21.4781,7.376007375,21.4167Q7.334968375,21.3553,7.306699375,21.287Q7.278431375,21.2188,7.264020375,21.1463Q7.249609375,21.0739,7.249609375,21Q7.249609375,20.9275,7.263487375,20.8564Q7.2773653750000005,20.7853,7.304608375,20.7181Q7.331851375,20.6509,7.371450375,20.5902Q7.411049375,20.5295,7.461539875,20.4775Q7.512029975,20.4255,7.571542375,20.3842Q7.631054675,20.3428,7.697387375,20.3136Q7.763719375,20.2844,7.834416375,20.2684Q7.905113375,20.2525,7.977559375,20.2503Z" fill-rule="evenodd" fill="#FFFFFF" fill-opacity="1"/></g><g><path d="M14.289023,3.238771Q14.25,3.122574,14.25,3Q14.25,2.9261315,14.264410999999999,2.853682Q14.278822,2.781233,14.30709,2.712987Q14.335359,2.644742,14.376398,2.583322Q14.417437,2.521903,14.46967,2.46967Q14.521903,2.417437,14.583322,2.376398Q14.644742,2.335359,14.712987,2.30709Q14.781233,2.278822,14.853682,2.264411Q14.9261315,2.25,15,2.25Q15.0586438,2.25,15.116575,2.259115Q15.174506,2.26823,15.230316,2.286239Q15.286126,2.304248,15.338459,2.3307130000000003Q15.390792,2.357177,15.438375,2.391455Q15.485958,2.425732,15.527635,2.466989Q15.569312,2.508245,15.60407,2.555479Q15.638828,2.602712,15.665822,2.654774Q15.692816,2.706836,15.711389,2.762461L15.711391,2.76246Q17.2125,7.25809,17.2125,12Q17.2125,16.7402,15.712495,21.2342Q15.711943,21.2359,15.711391,21.2375Q15.692821,21.2932,15.66583,21.3452Q15.638839,21.3973,15.604083,21.4445Q15.569326,21.4918,15.52765,21.533Q15.485974,21.5743,15.43839,21.6085Q15.390806,21.6428,15.338472,21.6693Q15.286138,21.6958,15.230326,21.7138Q15.174514,21.7318,15.11658,21.7409Q15.0586467,21.75,15,21.75Q14.9261315,21.75,14.853682,21.7356Q14.781233,21.7212,14.712987,21.6929Q14.644742,21.6646,14.583322,21.6236Q14.521903,21.5826,14.46967,21.5303Q14.417437,21.4781,14.376398,21.4167Q14.335359,21.3553,14.30709,21.287Q14.278822,21.2188,14.264410999999999,21.1463Q14.25,21.0739,14.25,21Q14.25,20.8781,14.28861,20.7625Q15.7125,16.4981,15.7125,12Q15.7125,7.50256,14.289023,3.238771Z" fill-rule="evenodd" fill="#FFFFFF" fill-opacity="1"/></g><g><path d="M20.2503,16.02205Q16.2228,17.2125,12,17.2125Q7.77718,17.2125,3.749676,16.02205Q3.747545,16.0945,3.7315810000000003,16.16519Q3.715617,16.23589,3.686411,16.30222Q3.657206,16.36856,3.6158390000000002,16.428069999999998Q3.574472,16.48758,3.522475,16.53807Q3.470478,16.58856,3.409776,16.62816Q3.349073,16.66776,3.281911,16.695Q3.214749,16.72224,3.143613,16.73612Q3.072477,16.75,3,16.75Q2.9261315,16.75,2.853682,16.73559Q2.781233,16.72118,2.712987,16.69291Q2.644742,16.66464,2.583322,16.6236Q2.521903,16.58256,2.46967,16.53033Q2.417437,16.4781,2.376398,16.41668Q2.335359,16.35526,2.30709,16.28701Q2.278822,16.21877,2.264411,16.14632Q2.25,16.07387,2.25,16L2.25,15Q2.25,14.878094,2.288609,14.762464Q2.335859,14.620959,2.433663,14.508307Q2.531467,14.395655,2.664936,14.329006Q2.798404,14.262358,2.9472167,14.25186Q3.0960295,14.241361,3.237532,14.288609Q7.5019,15.7125,12,15.7125Q16.4981,15.7125,20.7625,14.288609Q20.8781,14.25,21,14.25Q21.0739,14.25,21.1463,14.264410999999999Q21.2188,14.278822,21.287,14.30709Q21.3553,14.335359,21.4167,14.376398Q21.4781,14.417437,21.5303,14.46967Q21.5826,14.521903,21.6236,14.583322Q21.6646,14.644742,21.6929,14.712987Q21.7212,14.781233,21.7356,14.853682Q21.75,14.9261315,21.75,15L21.75,16Q21.75,16.07387,21.7356,16.14632Q21.7212,16.21877,21.6929,16.28701Q21.6646,16.35526,21.6236,16.41668Q21.5826,16.4781,21.5303,16.53033Q21.4781,16.58256,21.4167,16.6236Q21.3553,16.66464,21.287,16.69291Q21.2188,16.72118,21.1463,16.73559Q21.0739,16.75,21,16.75Q20.9275,16.75,20.8564,16.73612Q20.7853,16.72224,20.7181,16.695Q20.6509,16.66776,20.5902,16.62816Q20.5295,16.58856,20.4775,16.53807Q20.4255,16.48758,20.3842,16.428069999999998Q20.3428,16.36855,20.3136,16.30222Q20.2844,16.23589,20.2684,16.16519Q20.2525,16.0945,20.2503,16.02205Z" fill-rule="evenodd" fill="#FFFFFF" fill-opacity="1"/></g><g><path d="M12,8.287499904632568Q16.4981,8.287499904632568,20.7625,9.711389904632568Q20.8781,9.749999904632569,21,9.749999904632569Q21.0739,9.749999904632569,21.1463,9.735589904632569Q21.2188,9.721179904632567,21.287,9.692909904632568Q21.3553,9.664639904632569,21.4167,9.623599904632568Q21.4781,9.582559904632568,21.5303,9.530329904632568Q21.5826,9.478099904632568,21.6236,9.416679904632568Q21.6646,9.355259904632568,21.6929,9.28700990463257Q21.7212,9.218769904632568,21.7356,9.146319904632568Q21.75,9.073869904632568,21.75,8.999999904632569Q21.75,8.941349904632569,21.7409,8.883419904632568Q21.7318,8.825489904632569,21.7138,8.769669904632568Q21.6957,8.713859904632569,21.6693,8.661529904632568Q21.6428,8.609189904632569,21.6085,8.561609904632569Q21.5743,8.514021904632568,21.533,8.472343904632568Q21.4917,8.430666904632568,21.4445,8.395908904632568Q21.3973,8.361151904632568,21.3452,8.334159904632568Q21.2931,8.307166904632568,21.2375,8.288595904632569Q21.2359,8.288056904632569,21.2342,8.287504904632568Q16.7402,6.787499904632568,12,6.787499904632568Q7.25809,6.787499904632568,2.76246,8.288608904632568L2.762461,8.288610904632568Q2.706836,8.307183904632568,2.654774,8.334177904632568Q2.602712,8.361171904632569,2.555479,8.395929904632569Q2.508245,8.430687904632569,2.466989,8.472364904632569Q2.425732,8.514041904632569,2.391455,8.561629904632568Q2.357177,8.609209904632568,2.3307130000000003,8.66153990463257Q2.304248,8.713869904632569,2.286239,8.769679904632568Q2.26823,8.825489904632569,2.259115,8.883429904632568Q2.25,8.941359904632568,2.25,8.999999904632569Q2.25,9.073869904632568,2.264411,9.146319904632568Q2.278822,9.218769904632568,2.30709,9.28700990463257Q2.335359,9.355259904632568,2.376398,9.416679904632568Q2.417437,9.478099904632568,2.46967,9.530329904632568Q2.521903,9.582559904632568,2.583322,9.623599904632568Q2.644742,9.664639904632569,2.712987,9.692909904632568Q2.781233,9.721179904632567,2.853682,9.735589904632569Q2.9261315,9.749999904632569,3,9.749999904632569Q3.121904,9.749999904632569,3.237533,9.711389904632568L3.23871,9.710999904632569Q7.50252,8.287499904632568,12,8.287499904632568Z" fill-rule="evenodd" fill="#FFFFFF" fill-opacity="1"/></g><g transform="matrix(-1,-1.2246469849340659e-16,1.2246469849340659e-16,-1,48,48)" style="opacity:0;"></g></g></g></g></svg>