<svg xmlns="http://www.w3.org/2000/svg" xmlns:xlink="http://www.w3.org/1999/xlink" fill="none" version="1.1" viewBox="0 0 140 50"><g><path d="M9.81,39.24Q5.82,39.24,3.42,37.725Q1.02,36.21,1.02,33.09Q1.02,31.44,1.59,30.57Q2.16,29.7,3.27,29.7Q4.08,29.7,4.59,30.12Q5.1,30.54,5.1,31.2Q5.1,31.8,5.01,32.25Q5.01,32.37,4.965,32.67Q4.92,32.97,4.92,33.3Q4.92,34.65,6.285,35.31Q7.65,35.97,10.11,35.97Q12.66,35.97,14.1,35.055Q15.54,34.14,15.54,32.49Q15.54,31.47,14.88,30.735Q14.22,30,13.23,29.505Q12.24,29.01,10.44,28.29Q8.13,27.39,6.675,26.58Q5.22,25.77,4.185,24.375Q3.15,22.98,3.15,20.91Q3.15,18.75,4.305,17.07Q5.46,15.39,7.635,14.46Q9.81,13.53,12.75,13.53Q14.94,13.53,16.77,14.175Q18.6,14.82,19.695,16.14Q20.79,17.46,20.79,19.38Q20.79,21.27,20.22,22.23Q19.65,23.19,18.54,23.19Q17.76,23.19,17.235,22.71Q16.71,22.23,16.71,21.57Q16.71,21,16.8,20.52Q16.89,19.62,16.89,19.38Q16.89,18.12,15.66,17.46Q14.43,16.8,12.6,16.8Q10.02,16.8,8.655,17.745Q7.29,18.69,7.29,20.4Q7.29,21.54,7.995,22.35Q8.7,23.16,9.75,23.7Q10.8,24.24,12.69,24.99Q14.97,25.92,16.35,26.67Q17.73,27.42,18.705,28.71Q19.68,30,19.68,31.89Q19.68,35.43,16.995,37.335Q14.31,39.24,9.81,39.24ZM38.88,32.31Q39.27,32.31,39.495,32.67Q39.72,33.03,39.72,33.66Q39.72,34.86,39.15,35.52Q37.77,37.11,36.315,38.13Q34.86,39.15,33,39.15Q31.47,39.15,30.69,38.265Q29.91,37.38,29.91,35.7Q29.91,34.86,30.33,32.7Q30.72,30.81,30.72,30.09Q30.72,29.61,30.39,29.61Q30,29.61,29.28,30.615Q28.56,31.62,27.84,33.27Q27.12,34.92,26.67,36.75Q26.1,39.15,23.85,39.15Q22.95,39.15,22.665,38.505Q22.38,37.86,22.38,36.18Q22.38,35.22,22.41,34.65L22.44,32.25Q22.44,27.63,23.385,22.62Q24.33,17.61,26.175,14.205Q28.02,10.8,30.6,10.8Q31.98,10.8,32.835,11.985Q33.69,13.17,33.69,15.06Q33.69,18.09,31.92,21.345Q30.15,24.6,26.16,28.95Q26.07,30.51,26.07,32.16Q27.06,29.61,28.275,28.005Q29.49,26.4,30.675,25.71Q31.86,25.02,32.85,25.02Q34.8,25.02,34.8,26.97Q34.8,28.14,34.14,31.2Q33.57,33.81,33.57,34.65Q33.57,35.85,34.44,35.85Q35.04,35.85,35.865,35.115Q36.69,34.38,38.07,32.73Q38.43,32.31,38.88,32.31ZM29.97,13.77Q29.43,13.77,28.77,15.315Q28.11,16.86,27.495,19.485Q26.88,22.11,26.49,25.2Q28.35,23.01,29.565,20.43Q30.78,17.85,30.78,15.75Q30.78,14.79,30.57,14.28Q30.36,13.77,29.97,13.77ZM40.98,39.15Q39.12,39.15,38.01,37.8Q36.9,36.45,36.9,34.26Q36.9,31.86,38.01,29.715Q39.12,27.57,40.965,26.265Q42.81,24.96,44.88,24.96Q45.54,24.96,45.765,25.215Q45.99,25.47,46.14,26.13Q46.77,26.01,47.46,26.01Q48.93,26.01,48.93,27.06Q48.93,27.69,48.48,30.06Q47.79,33.51,47.79,34.86Q47.79,35.31,48.015,35.58Q48.24,35.85,48.6,35.85Q49.17,35.85,49.98,35.115Q50.79,34.38,52.17,32.73Q52.53,32.31,52.98,32.31Q53.37,32.31,53.595,32.67Q53.82,33.03,53.82,33.66Q53.82,34.86,53.25,35.52Q52.02,37.05,50.64,38.1Q49.26,39.15,47.97,39.15Q46.98,39.15,46.155,38.475Q45.33,37.8,44.91,36.63Q43.35,39.15,40.98,39.15ZM42.06,36.12Q42.72,36.12,43.32,35.34Q43.92,34.56,44.19,33.27L45.3,27.75Q44.04,27.78,42.975,28.695Q41.91,29.61,41.28,31.11Q40.65,32.61,40.65,34.29Q40.65,35.22,41.025,35.67Q41.4,36.12,42.06,36.12ZM53.52,39.15Q52.38,39.15,51.915,37.95Q51.45,36.75,51.45,34.11Q51.45,30.21,52.56,26.7Q52.83,25.83,53.445,25.425Q54.06,25.02,55.17,25.02Q55.77,25.02,56.01,25.17Q56.25,25.32,56.25,25.74Q56.25,26.22,55.8,27.9Q55.5,29.1,55.32,30Q55.14,30.9,55.02,32.22Q56.01,29.64,57.24,28.02Q58.47,26.4,59.655,25.71Q60.84,25.02,61.83,25.02Q63.78,25.02,63.78,26.97Q63.78,27.36,63.51,28.86Q63.27,30.06,63.27,30.36Q63.27,31.41,64.02,31.41Q64.86,31.41,66.18,30.09Q66.57,29.7,66.99,29.7Q67.38,29.7,67.605,30.045Q67.83,30.39,67.83,30.96Q67.83,32.07,67.23,32.7Q66.39,33.57,65.265,34.185Q64.14,34.8,62.88,34.8Q61.29,34.8,60.465,33.99Q59.64,33.18,59.64,31.8Q59.64,31.35,59.73,30.9Q59.79,30.3,59.79,30.09Q59.79,29.61,59.46,29.61Q59.01,29.61,58.275,30.615Q57.54,31.62,56.82,33.27Q56.1,34.92,55.65,36.75Q55.32,38.16,54.885,38.655Q54.45,39.15,53.52,39.15ZM81,29.79Q81.39,29.79,81.6,30.18Q81.81,30.57,81.81,31.17Q81.81,31.92,81.6,32.325Q81.39,32.73,80.94,32.88Q79.14,33.51,76.98,33.6Q76.38,36.09,74.715,37.62Q73.05,39.15,71.04,39.15Q68.01,39.15,66.63,36.84Q65.25,34.53,65.25,30.15Q65.25,26.28,66.21,21.735Q67.17,17.19,69.015,13.995Q70.86,10.8,73.41,10.8Q74.79,10.8,75.63,11.985Q76.47,13.17,76.47,15.06Q76.47,17.52,75.54,19.95Q74.61,22.38,72.45,25.05Q74.46,25.2,75.72,26.715Q76.98,28.23,77.22,30.45Q78.63,30.36,80.58,29.85Q80.76,29.79,81,29.79ZM72.72,13.77Q72.12,13.77,71.415,15.555Q70.71,17.34,70.11,20.4Q69.51,23.46,69.21,27.09Q71.19,23.46,72.375,20.685Q73.56,17.91,73.56,15.75Q73.56,14.79,73.335,14.28Q73.11,13.77,72.72,13.77ZM71.16,35.97Q72.09,35.97,72.81,35.19Q73.53,34.41,73.77,32.94Q72.84,32.31,72.345,31.29Q71.85,30.27,71.85,29.13Q71.85,28.71,71.97,27.99L71.88,27.99Q70.65,27.99,69.825,29.205Q69,30.42,69,32.46Q69,34.17,69.645,35.07Q70.29,35.97,71.16,35.97ZM83.16,23.04Q81.9,23.04,81.27,22.455Q80.64,21.87,80.64,20.82Q80.64,19.77,81.465,19.065Q82.29,18.36,83.52,18.36Q84.63,18.36,85.32,18.9Q86.01,19.44,86.01,20.43Q86.01,21.63,85.23,22.335Q84.45,23.04,83.16,23.04ZM82.92,39.15Q80.97,39.15,80.085,37.77Q79.2,36.39,79.2,34.11Q79.2,32.76,79.545,30.645Q79.89,28.53,80.43,26.7Q80.7,25.74,81.15,25.38Q81.6,25.02,82.59,25.02Q84.12,25.02,84.12,26.04Q84.12,26.79,83.55,29.52Q82.83,32.82,82.83,33.99Q82.83,34.89,83.07,35.37Q83.31,35.85,83.88,35.85Q84.42,35.85,85.23,35.1Q86.04,34.35,87.39,32.73Q87.75,32.31,88.2,32.31Q88.59,32.31,88.815,32.67Q89.04,33.03,89.04,33.66Q89.04,34.86,88.47,35.52Q85.5,39.15,82.92,39.15ZM88.68,39.15Q87.36,39.15,86.685,38.43Q86.01,37.71,86.01,36.54Q86.01,35.19,86.775,34.38Q87.54,33.57,88.92,33.57Q90.24,33.57,90.915,34.215Q91.59,34.86,91.59,36.12Q91.59,37.5,90.81,38.325Q90.03,39.15,88.68,39.15Z" fill="#FFFFFF" fill-opacity="1"/><path d="M106.29,30.6Q107.13,30.6,107.13,31.86Q107.13,34.23,103.41,34.23Q102.69,34.23,101.34,33.96Q101.73,35.82,101.985,38.085Q102.24,40.35,102.24,41.82Q102.24,45.06,101.19,46.77Q100.14,48.48,98.43,48.48Q96.27,48.48,95.355,45.42Q94.44,42.36,94.44,36.18Q94.44,30.42,95.685,24.495Q96.93,18.57,99.105,14.685Q101.28,10.8,103.89,10.8Q105.3,10.8,106.095,12.06Q106.89,13.32,106.89,15.45Q106.89,22.5,98.46,30.81Q98.16,33.75,98.16,35.97Q98.16,39.06,98.37,42.315Q98.58,45.57,99.06,45.57Q99.96,45.57,99.96,42.45Q99.96,40.11,99.645,37.92Q99.33,35.73,98.79,33.3Q98.76,32.91,99.045,32.31Q99.33,31.71,99.75,31.26Q100.17,30.81,100.5,30.81Q101.1,30.81,101.94,30.87Q102.21,30.9,102.57,30.9Q103.77,30.9,105.24,30.69Q105.48,30.66,105.75,30.63Q106.02,30.6,106.29,30.6ZM103.26,13.77Q102.72,13.77,101.925,15.6Q101.13,17.43,100.35,20.445Q99.57,23.46,99,26.82Q101.4,24.09,102.69,21.135Q103.98,18.18,104.01,15.6Q104.01,13.77,103.26,13.77ZM108.51,39.15Q107.16,39.15,106.305,37.905Q105.45,36.66,105.45,34.8Q105.45,32.55,105.75,30.675Q106.05,28.8,106.74,26.7Q107.04,25.8,107.58,25.41Q108.12,25.02,109.29,25.02Q109.95,25.02,110.205,25.23Q110.46,25.44,110.46,25.86Q110.46,26.1,110.13,27.48Q109.83,28.59,109.65,29.49Q109.05,32.64,109.05,33.69Q109.05,34.32,109.2,34.575Q109.35,34.83,109.68,34.83Q110.13,34.83,110.805,33.93Q111.48,33.03,112.245,31.2Q113.01,29.37,113.73,26.7Q113.97,25.8,114.465,25.41Q114.96,25.02,115.95,25.02Q116.64,25.02,116.91,25.185Q117.18,25.35,117.18,25.8Q117.18,26.55,116.43,29.91Q115.59,33.75,115.59,34.65Q115.59,35.22,115.83,35.535Q116.07,35.85,116.46,35.85Q117.06,35.85,117.885,35.115Q118.71,34.38,120.09,32.73Q120.45,32.31,120.9,32.31Q121.29,32.31,121.515,32.67Q121.74,33.03,121.74,33.66Q121.74,34.86,121.17,35.52Q119.88,37.11,118.395,38.13Q116.91,39.15,115.02,39.15Q113.58,39.15,112.905,38.04Q112.23,36.93,112.23,34.92Q111.72,36.96,110.7,38.055Q109.68,39.15,108.51,39.15ZM121.44,39.15Q120.3,39.15,119.835,37.95Q119.37,36.75,119.37,34.11Q119.37,30.21,120.48,26.7Q120.75,25.83,121.365,25.425Q121.98,25.02,123.09,25.02Q123.69,25.02,123.93,25.17Q124.17,25.32,124.17,25.74Q124.17,26.22,123.72,27.9Q123.42,29.1,123.24,30Q123.06,30.9,122.94,32.22Q123.93,29.64,125.16,28.02Q126.39,26.4,127.575,25.71Q128.76,25.02,129.75,25.02Q131.7,25.02,131.7,26.97Q131.7,28.14,131.04,31.2Q130.47,33.81,130.47,34.65Q130.47,35.85,131.34,35.85Q131.94,35.85,132.765,35.115Q133.59,34.38,134.97,32.73Q135.33,32.31,135.78,32.31Q136.17,32.31,136.395,32.67Q136.62,33.03,136.62,33.66Q136.62,34.86,136.05,35.52Q134.76,37.11,133.275,38.13Q131.79,39.15,129.9,39.15Q128.37,39.15,127.59,38.265Q126.81,37.38,126.81,35.7Q126.81,34.86,127.23,32.7Q127.62,30.81,127.62,30.09Q127.62,29.61,127.29,29.61Q126.9,29.61,126.195,30.615Q125.49,31.62,124.755,33.27Q124.02,34.92,123.57,36.75Q123.24,38.16,122.805,38.655Q122.37,39.15,121.44,39.15Z" fill="#FF00FF" fill-opacity="1"/></g></svg>