<svg viewBox="0 0 29 29" fill="none" xmlns="http://www.w3.org/2000/svg">
<circle cx="14.9771" cy="14.0201" r="13.5201" fill="#170611" stroke="#E32FEE"/>
<g clip-path="url(#clip0_11685_1577)">
<path fill-rule="evenodd" clip-rule="evenodd" d="M20.2431 8.17637C20.4231 8.10062 20.6201 8.07449 20.8136 8.10071C21.0071 8.12693 21.19 8.20453 21.3434 8.32545C21.4967 8.44636 21.6148 8.60616 21.6854 8.78822C21.7561 8.97028 21.7766 9.16793 21.7449 9.36062L20.0931 19.3801C19.9328 20.3465 18.8724 20.9008 17.986 20.4194C17.2446 20.0166 16.1434 19.3961 15.1529 18.7486C14.6576 18.4245 13.1406 17.3867 13.327 16.6482C13.4872 16.0167 16.0363 13.6438 17.493 12.2331C18.0647 11.6788 17.804 11.3591 17.1288 11.8689C15.4522 13.1348 12.7604 15.0597 11.8704 15.6016C11.0852 16.0793 10.6759 16.1609 10.1865 16.0793C9.29358 15.9308 8.46549 15.7006 7.78961 15.4202C6.8763 15.0415 6.92072 13.7859 7.78888 13.4203L20.2431 8.17637Z" fill="#E32FEE"/>
</g>
<defs>
<clipPath id="clip0_11685_1577">
<rect width="16.023" height="16.023" fill="white" transform="translate(6.56641 6.40625)"/>
</clipPath>
</defs>
</svg>
