<svg xmlns="http://www.w3.org/2000/svg" xmlns:xlink="http://www.w3.org/1999/xlink" fill="none" version="1.1" width="24" height="24" viewBox="0 0 24 24"><g><g><g><g><path d="M7.1625175,13.9516875L7.1628875,13.9517875L9.3267575,14.6730875L10.0480475,16.8369875Q11.6438175,21.6326875,14.2196875,21.6326875Q16.7955875,21.6326875,18.3911875,16.837287500000002L21.2217875,8.345637499999999Q22.3121875,5.0482975,20.6316875,3.3652205Q18.9487875,1.6798675,15.6524875,2.7786415L7.1617675,5.6088875Q2.3671875,7.2126875,2.3671875,9.7839075Q2.3671875,12.3559175,7.1625175,13.9516875ZM10.156857500000001,13.3686875L7.6368575,12.5286375L7.6364875,12.5285175Q3.8671875,11.2742775,3.8671875,9.7839075Q3.8671875,8.2926275,7.6376075,7.0314175L16.126887500000002,4.2016675Q18.542987500000002,3.3963005,19.5701875,4.4250875Q20.5979875,5.4544274999999995,19.7975875,7.8746675L16.9681875,16.3629875Q15.7137875,20.1326875,14.2196875,20.1326875Q12.7255575,20.1326875,11.4713275,16.3633875L10.631197499999999,13.8429875Q10.6035875,13.7601875,10.5576775,13.6858875Q10.511767500000001,13.6115875,10.450017500000001,13.5497875Q10.388267500000001,13.4880875,10.3139875,13.4421875Q10.2397075,13.3962875,10.156857500000001,13.3686875Z" fill-rule="evenodd" fill="#FFFFFF" fill-opacity="1"/></g><g><path d="M14.220445,10.5895904196167Q14.325595,10.4841464196167,14.382484999999999,10.346529419616699Q14.439375,10.2089134196167,14.439375,10.0600004196167Q14.439375,9.9861319196167,14.424965,9.913682419616698Q14.410554999999999,9.8412334196167,14.382285,9.7729874196167Q14.354015,9.7047424196167,14.312975,9.6433224196167Q14.271935,9.5819034196167,14.219705000000001,9.5296704196167Q14.167475,9.477437419616699,14.106055,9.4363984196167Q14.044635,9.3953594196167,13.976385,9.3670904196167Q13.908145000000001,9.3388224196167,13.835695,9.324411419616698Q13.763245,9.3100004196167,13.689375,9.3100004196167Q13.539915,9.3100004196167,13.401875,9.367291419616699Q13.263835,9.424581419616699,13.158305,9.530410419616699L9.57872,13.119990419616698L9.578306,13.1204104196167Q9.473156,13.225850419616698,9.416265,13.3634704196167Q9.359375,13.501090419616698,9.359375,13.650000419616699Q9.359375,13.723870419616699,9.373785999999999,13.796320419616698Q9.388197,13.868770419616698,9.416465,13.9370104196167Q9.444734,14.0052604196167,9.485773,14.066680419616699Q9.526812,14.1281004196167,9.579045,14.180330419616698Q9.631278,14.2325604196167,9.692697,14.273600419616699Q9.754117,14.3146404196167,9.822362,14.3429104196167Q9.890608,14.3711804196167,9.963057,14.3855904196167Q10.0355065,14.400000419616699,10.109375,14.400000419616699Q10.258831,14.400000419616699,10.396871,14.342710419616699Q10.53491,14.285420419616699,10.640444,14.179590419616698L14.219995,10.5900424196167L14.220445,10.5895904196167L14.220445,10.5895904196167Z" fill-rule="evenodd" fill="#FFFFFF" fill-opacity="1"/></g><g style="opacity:0;"></g></g></g></g></svg>