<svg viewBox="0 0 26 26" fill="none" xmlns="http://www.w3.org/2000/svg">
<path d="M16.0747 23.4031C13.7826 24.1746 11.3047 24.199 8.99777 23.4729C6.6908 22.7468 4.67365 21.3076 3.23654 19.3624C1.79943 17.4171 1.01645 15.0661 1.00026 12.6476C0.984067 10.2292 1.7355 7.86789 3.14644 5.90357C4.55738 3.93925 6.55509 2.47316 8.85212 1.71624C11.1492 0.959319 13.6271 0.950592 15.9294 1.69131C18.2317 2.43204 20.2397 3.88402 21.6644 5.83835C23.0892 7.79268 23.8572 10.1486 23.8581 12.5671C23.8211 13.4942 23.7089 14.4167 23.5225 15.3255" stroke="#E32FEE" stroke-width="1.5"/>
<path d="M15.1237 21.2788C14.3015 22.213 13.4002 23.0743 12.4297 23.8533" stroke="#E32FEE" stroke-width="1.5"/>
<path d="M12.4297 1.00439C15.5147 3.69979 17.4237 7.49457 17.7488 11.5783C17.8156 12.3196 17.8294 13.0648 17.7902 13.808" stroke="#E32FEE" stroke-width="1.5"/>
<path d="M12.429 1.00439C10.7551 2.46336 9.41042 4.26135 8.4839 6.27924C7.55737 8.29714 7.07021 10.4889 7.05469 12.7093C7.05469 20.157 10.4016 22.3637 12.4152 23.8533" stroke="#E32FEE" stroke-width="1.5"/>
<path d="M2.48438 6.93506H22.4277" stroke="#E32FEE" stroke-width="1.5"/>
<path d="M12.4297 1V23.8535" stroke="#E32FEE" stroke-width="1.5"/>
<path d="M2.79688 18.6953H14.7454" stroke="#E32FEE" stroke-width="1.5"/>
<path d="M1 12.7096L23.8581 12.4292" stroke="#E32FEE" stroke-width="1.5"/>
<path d="M22.3452 23.9916L24.3818 21.9504L20.7039 18.2725L22.7957 16.9347C22.8262 16.9166 22.8505 16.8898 22.8654 16.8577C22.8802 16.8255 22.885 16.7896 22.879 16.7547C22.873 16.7198 22.8566 16.6876 22.8319 16.6622C22.8071 16.6369 22.7753 16.6197 22.7405 16.6128L15.7112 14.967C15.6822 14.9611 15.6521 14.9624 15.6237 14.971C15.5954 14.9795 15.5696 14.9949 15.5486 15.0159C15.5277 15.0368 15.5122 15.0627 15.5037 15.091C15.4952 15.1194 15.4938 15.1494 15.4997 15.1785L17.026 22.3412C17.0334 22.376 17.0509 22.4078 17.0764 22.4326C17.1019 22.4575 17.1342 22.4741 17.1692 22.4806C17.2042 22.487 17.2403 22.4828 17.2729 22.4686C17.3056 22.4545 17.3332 22.4309 17.3524 22.4009L18.6673 20.3137L22.3452 23.9916Z" stroke="#E32FEE" stroke-width="1.5"/>
</svg>
