<svg xmlns="http://www.w3.org/2000/svg" xmlns:xlink="http://www.w3.org/1999/xlink" fill="none" version="1.1" viewBox="0 0 30 30"><g><g><g><g><path d="M25.73119375,7.941381875Q25.87989375,5.813781875,23.70299375,3.755111875L23.70159375,3.7538018749999997Q19.75989375,0.044971874999999883,16.030493749999998,3.984421875L5.76750775,14.847471875Q4.90282255,15.767971875,4.73175975,17.050871875L4.26752375,21.114971875Q4.10411875,22.585571875,5.06065575,23.492671875Q6.0204337500000005,24.402871875,7.47761375,24.151671875L11.50145375,23.464271875Q12.81103375,23.231571875,13.66689375,22.292871875L23.92039375,11.440081875Q25.61149375,9.653691875,25.73119375,7.941381875ZM22.67239375,4.844951875L22.67369375,4.846251875Q24.33409375,6.417051875,24.23479375,7.836791875Q24.15259375,9.012851874999999,22.82999375,10.409961875L12.55846375,21.282171875Q12.046273750000001,21.843971875,11.24890375,21.985771875L7.22275375,22.673471875Q6.50682375,22.796871875,6.0928337500000005,22.404271875Q5.67727875,22.010171875,5.75783775,21.285071875L6.21860375,17.249171875000002Q6.32598375,16.443771875,6.85785375,15.877571875L17.11979375,5.015631875Q19.82049375,2.162875875,22.67239375,4.844951875Z" fill-rule="evenodd" fill="#FFFFFF" fill-opacity="1"/></g><g><path d="M21.5996446875,13.496220000000001Q21.6371246875,13.5,21.6748046875,13.5Q21.7486746875,13.5,21.8211246875,13.48559Q21.8935746875,13.47118,21.961814687500002,13.442910000000001Q22.0300646875,13.41464,22.0914846875,13.3736Q22.1529046875,13.33256,22.2051346875,13.28033Q22.2573646875,13.228100000000001,22.2984046875,13.16668Q22.3394446875,13.105260000000001,22.3677146875,13.03701Q22.3959846875,12.96877,22.410394687500002,12.89632Q22.4248046875,12.82387,22.4248046875,12.75Q22.4248046875,12.68088,22.4121746875,12.612919999999999Q22.3995346875,12.54497,22.3746946875,12.48046Q22.3498546875,12.41596,22.313644687500002,12.35709Q22.2774346875,12.298210000000001,22.231074687499998,12.24694Q22.184704687500002,12.19568,22.1297546875,12.153749999999999Q22.0748046875,12.11182,22.0131246875,12.080639999999999Q21.9514346875,12.04946,21.8850846875,12.03008Q21.8187346875,12.0107,21.7499646875,12.003779999999999L21.5996446875,13.496220000000001L21.5996446875,13.496220000000001ZM14.8623046875,7.0625Q14.9361731875,7.0625,15.0086226875,7.048089Q15.0810716875,7.033678,15.1493176875,7.00541Q15.2175626875,6.977141,15.2789826875,6.936102Q15.3404016875,6.895063,15.3926346875,6.84283Q15.4448676875,6.790597,15.4859066875,6.729178Q15.5269456875,6.667758,15.5552146875,6.599513Q15.5834826875,6.531267,15.597893687500001,6.458818Q15.6123046875,6.3863685,15.6123046875,6.3125Q15.6123046875,6.2544263,15.603364687500001,6.197045Q15.9666946875,8.52914,17.6818546875,10.14839Q19.3959946875,11.76669,21.7499646875,12.003779999999999Q21.7124746875,12,21.6748046875,12Q21.6009346875,12,21.5284846875,12.01441Q21.4560346875,12.02882,21.387794687499998,12.057089999999999Q21.3195446875,12.08536,21.2581246875,12.1264Q21.1967046875,12.16744,21.1444746875,12.21967Q21.0922446875,12.271899999999999,21.0512046875,12.33332Q21.0101646875,12.394739999999999,20.9818946875,12.46299Q20.9536246875,12.53123,20.939214687499998,12.60368Q20.9248046875,12.67613,20.9248046875,12.75Q20.9248046875,12.81912,20.9374346875,12.887080000000001Q20.9500746875,12.95503,20.9749146875,13.01954Q20.9997546875,13.08404,21.035964687499998,13.14291Q21.0721746875,13.201789999999999,21.118534687500002,13.25306Q21.164894687500002,13.30432,21.2198446875,13.346250000000001Q21.2747946875,13.38818,21.3364846875,13.419360000000001Q21.3981746875,13.45054,21.4645246875,13.46992Q21.5308746875,13.4893,21.5996446875,13.496220000000001Q18.7375946875,13.20796,16.6521246875,11.23911Q14.5636196875,9.26738,14.1212456875,6.427955L15.6033656875,6.197045L15.603364687500001,6.197045Q15.5931186875,6.131278,15.5714506875,6.068343Q15.5497826875,6.005409,15.5173696875,5.947274Q15.4849566875,5.889139,15.4428126875,5.83762Q15.4006686875,5.786102,15.3501106875,5.742811Q15.2995516875,5.69952,15.2421606875,5.665808Q15.1847686875,5.632098,15.1223366875,5.60902Q15.0599046875,5.585943,14.9943846875,5.574222Q14.9288648875,5.5625,14.8623046875,5.5625Q14.7884361875,5.5625,14.7159866875,5.576911Q14.6435376875,5.591322,14.5752916875,5.61959Q14.5070466875,5.647859,14.4456266875,5.688898Q14.3842076875,5.729937,14.3319746875,5.78217Q14.2797416875,5.834403,14.2387026875,5.895822Q14.1976636875,5.957242,14.1693946875,6.025487Q14.1411266875,6.093733,14.126715687499999,6.166182Q14.1123046875,6.2386315,14.1123046875,6.3125Q14.1123046875,6.3863685,14.126715687499999,6.458818Q14.1411266875,6.531267,14.1693946875,6.599513Q14.1976636875,6.667758,14.2387026875,6.729178Q14.2797416875,6.790597,14.3319746875,6.84283Q14.3842076875,6.895063,14.4456266875,6.936102Q14.5070466875,6.977141,14.5752916875,7.00541Q14.6435376875,7.033678,14.7159866875,7.048089Q14.7884361875,7.0625,14.8623046875,7.0625Z" fill-rule="evenodd" fill="#FFFFFF" fill-opacity="1"/></g><g><path d="M3.75,26.75L26.25,26.75Q26.3239,26.75,26.3963,26.764411Q26.4688,26.778822,26.537,26.80709Q26.6053,26.835359,26.6667,26.876398000000002Q26.7281,26.917437,26.7803,26.96967Q26.8326,27.021903000000002,26.8736,27.083322Q26.9146,27.144742,26.9429,27.212987Q26.9712,27.281233,26.9856,27.353682Q27,27.4261315,27,27.5Q27,27.5738685,26.9856,27.646318Q26.9712,27.718767,26.9429,27.787013Q26.9146,27.855258,26.8736,27.916678Q26.8326,27.978096999999998,26.7803,28.03033Q26.7281,28.082563,26.6667,28.123601999999998Q26.6053,28.164641,26.537,28.19291Q26.4688,28.221178,26.3963,28.235589Q26.3239,28.25,26.25,28.25L3.75,28.25Q3.6761315,28.25,3.603682,28.235589Q3.531233,28.221178,3.462987,28.19291Q3.394742,28.164641,3.333322,28.123601999999998Q3.271903,28.082563,3.21967,28.03033Q3.167437,27.978096999999998,3.126398,27.916678Q3.085359,27.855258,3.05709,27.787013Q3.028822,27.718767,3.014411,27.646318Q3,27.5738685,3,27.5Q3,27.4261315,3.014411,27.353682Q3.028822,27.281233,3.05709,27.212987Q3.085359,27.144742,3.126398,27.083322Q3.167437,27.021903000000002,3.21967,26.96967Q3.271903,26.917437,3.333322,26.876398000000002Q3.394742,26.835359,3.462987,26.80709Q3.531233,26.778822,3.603682,26.764411Q3.6761315,26.75,3.75,26.75Z" fill-rule="evenodd" fill="#FFFFFF" fill-opacity="1"/></g><g style="opacity:0;"></g></g></g></g></svg>