<svg xmlns="http://www.w3.org/2000/svg" xmlns:xlink="http://www.w3.org/1999/xlink" fill="none" version="1.1" viewBox="0 0 100 100"><g><g><g><g><path d="M43.9231921875,26.91045Q41.2627921875,24.25,37.500322187500004,24.25Q33.7378821875,24.25,31.0774421875,26.91045Q28.4169921875,29.57089,28.4169911875,33.333330000000004Q28.4169911875,37.0958,31.0774421875,39.7562Q33.7378921875,42.4167,37.500322187500004,42.4167Q41.2627921875,42.4167,43.9231921875,39.7562Q46.5836921875,37.0958,46.5836921875,33.333330000000004Q46.5836921875,29.5709,43.9231921875,26.91045ZM32.1381021875,27.97111Q34.3592021875,25.749999,37.500322187500004,25.749999Q40.6414921875,25.75,42.8625921875,27.97111Q45.0836921875,30.19222,45.0836921875,33.333330000000004Q45.0836921875,36.4745,42.8625921875,38.6956Q40.6414921875,40.9167,37.500322187500004,40.9167Q34.3592021875,40.9167,32.1381021875,38.6956Q29.9169911875,36.4745,29.9169911875,33.333330000000004Q29.9169921875,30.19221,32.1381021875,27.97111Z" fill-rule="evenodd" fill="currentColor" fill-opacity="1"/></g><g><path d="M92.4163078125,62.4997078125L92.4163078125,41.6663078125Q92.4163078125,41.5925078125,92.4019078125,41.5200078125Q92.3875078125,41.4476078125,92.3592078125,41.3793078125Q92.3310078125,41.3111078125,92.2899078125,41.2496078125Q92.2489078125,41.1882078125,92.1966078125,41.1360078125Q92.1444078125,41.0838078125,92.0830078125,41.0427078125Q92.0216078125,41.0017078125,91.9533078125,40.9734078125Q91.8851078125,40.9452078125,91.8126078125,40.9307078125Q91.7402078125,40.9163078125,91.6663078125,40.9163078125Q91.5925078125,40.9163078125,91.5200078125,40.9307078125Q91.4475078125,40.9452078125,91.3793078125,40.9734078125Q91.3111078125,41.0017078125,91.2496078125,41.0427078125Q91.1882078125,41.0838078125,91.1360078125,41.1360078125Q91.0837078125,41.1882078125,91.0427078125,41.2496078125Q91.0017078125,41.3111078125,90.9734078125,41.3793078125Q90.9451078125,41.4476078125,90.9307078125,41.5200078125Q90.9163078125,41.5925078125,90.9163078125,41.6663078125L90.9163078125,62.4997078125Q90.9164078125,77.8141078125,84.3652078125,84.3652078125Q77.8140078125,90.9164078125,62.4997078125,90.9163078125L37.4997078125,90.9163078125Q22.1854078125,90.9164078125,15.6341678125,84.3652078125Q9.0830078125,77.8140078125,9.083013812499999,62.4997078125L9.0830078125,37.4997078125Q9.0830078125,22.1854078125,15.6341678125,15.6341678125Q22.1853078125,9.0830078125,37.4997078125,9.083013812499999L54.1663078125,9.0830078125Q54.2402078125,9.0830078125,54.3126078125,9.068596812500001Q54.3851078125,9.0541858125,54.4533078125,9.0259178125Q54.5216078125,8.9976488125,54.5830078125,8.9566098125Q54.6444078125,8.9155708125,54.6967078125,8.8633378125Q54.7489078125,8.8111048125,54.7899078125,8.7496858125Q54.8310078125,8.6882658125,54.8592078125,8.6200208125Q54.8875078125,8.5517748125,54.9019078125,8.4793258125Q54.9163078125,8.4068763125,54.9163078125,8.3330078125Q54.9163078125,8.2591393125,54.9019078125,8.1866898125Q54.8875078125,8.1142408125,54.8592078125,8.0459948125Q54.8310078125,7.9777498125,54.7899078125,7.9163298125Q54.7489078125,7.8549108125,54.6967078125,7.8026778125Q54.6444078125,7.7504448125,54.5830078125,7.7094058125Q54.5216078125,7.6683668125,54.4533078125,7.6400978125Q54.3851078125,7.6118298125,54.3126078125,7.5974188125Q54.2402078125,7.5830078125,54.1663078125,7.5830078125L37.4997078125,7.5830138125Q21.5640078125,7.5830078125,14.5735078125,14.5735078125Q7.5830078125,21.5640078125,7.5830078125,37.4997078125L7.5830138125,62.4997078125Q7.5830078125,78.4354078125,14.5735078125,85.4258078125Q21.564107812499998,92.4164078125,37.4997078125,92.4163078125L62.4997078125,92.4163078125Q78.4353078125,92.4163078125,85.4258078125,85.4258078125Q92.4164078125,78.4353078125,92.4163078125,62.4997078125Z" fill-rule="evenodd" fill="currentColor" fill-opacity="1"/></g><g><path d="M65.625,20.0830078125L88.54169999999999,20.0830078125Q88.6155,20.0830078125,88.688,20.0974188125Q88.7604,20.1118298125,88.8287,20.1400978125Q88.8969,20.1683668125,88.95830000000001,20.209405812500002Q89.0198,20.2504448125,89.072,20.3026778125Q89.1242,20.354910812500002,89.1653,20.4163298125Q89.2063,20.4777498125,89.2346,20.5459948125Q89.2628,20.6142408125,89.2773,20.6866898125Q89.29169999999999,20.7591393125,89.29169999999999,20.8330078125Q89.29169999999999,20.9068763125,89.2773,20.9793258125Q89.2628,21.0517748125,89.2346,21.1200208125Q89.2063,21.1882658125,89.1653,21.2496858125Q89.1242,21.311104812499998,89.072,21.3633378125Q89.0198,21.4155708125,88.95830000000001,21.456609812499998Q88.8969,21.4976488125,88.8287,21.5259178125Q88.7604,21.5541858125,88.688,21.5685968125Q88.6155,21.5830078125,88.54169999999999,21.5830078125L65.625,21.5830078125Q65.5511315,21.5830078125,65.478682,21.5685968125Q65.406233,21.5541858125,65.337987,21.5259178125Q65.269742,21.4976488125,65.208322,21.456609812499998Q65.146903,21.4155708125,65.09467,21.3633378125Q65.042437,21.311104812499998,65.001398,21.2496858125Q64.960359,21.1882658125,64.93209,21.1200208125Q64.903822,21.0517748125,64.889411,20.9793258125Q64.875,20.9068763125,64.875,20.8330078125Q64.875,20.7591393125,64.889411,20.6866898125Q64.903822,20.6142408125,64.93209,20.5459948125Q64.960359,20.4777498125,65.001398,20.4163298125Q65.042437,20.354910812500002,65.09467,20.3026778125Q65.146903,20.2504448125,65.208322,20.209405812500002Q65.269742,20.1683668125,65.337987,20.1400978125Q65.406233,20.1118298125,65.478682,20.0974188125Q65.5511315,20.0830078125,65.625,20.0830078125Z" fill-rule="evenodd" fill="currentColor" fill-opacity="1"/></g><g><path d="M76.3330078125,9.375Q76.3330078125,9.3011315,76.3474188125,9.228682Q76.3618298125,9.156233,76.3900978125,9.087987Q76.4183668125,9.019742,76.4594058125,8.958322Q76.5004448125,8.896903,76.5526778125,8.84467Q76.6049108125,8.792437,76.6663298125,8.751398Q76.7277498125,8.710359,76.7959948125,8.68209Q76.8642408125,8.653822,76.9366898125,8.639410999999999Q77.0091393125,8.625,77.0830078125,8.625Q77.1568763125,8.625,77.2293258125,8.639410999999999Q77.3017748125,8.653822,77.3700208125,8.68209Q77.4382658125,8.710359,77.4996858125,8.751398Q77.5611048125,8.792437,77.6133378125,8.84467Q77.6655708125,8.896903,77.7066098125,8.958322Q77.7476488125,9.019742,77.7759178125,9.087987Q77.8041858125,9.156233,77.8185968125,9.228682Q77.8330078125,9.3011315,77.8330078125,9.375L77.8330078125,32.2917Q77.8330078125,32.3655,77.8185968125,32.438Q77.8041858125,32.510400000000004,77.7759178125,32.5787Q77.7476488125,32.6469,77.7066098125,32.7083Q77.6655708125,32.769800000000004,77.6133378125,32.822Q77.5611048125,32.8742,77.4996858125,32.9153Q77.4382658125,32.9563,77.3700208125,32.9846Q77.3017748125,33.0128,77.2293258125,33.0273Q77.1568763125,33.0417,77.0830078125,33.0417Q77.0091393125,33.0417,76.9366898125,33.0273Q76.8642408125,33.0128,76.7959948125,32.9846Q76.7277498125,32.9563,76.6663298125,32.9153Q76.6049108125,32.8742,76.5526778125,32.822Q76.5004448125,32.769800000000004,76.4594058125,32.7083Q76.4183668125,32.6469,76.3900978125,32.5787Q76.3618298125,32.510400000000004,76.3474188125,32.438Q76.3330078125,32.3655,76.3330078125,32.2917L76.3330078125,9.375Z" fill-rule="evenodd" fill="currentColor" fill-opacity="1"/></g><g><path d="M84.3863,52.6519578125L91.178,58.4852878125Q91.28,58.5728978125,91.4061,58.619617812499996Q91.5322,58.666337812500004,91.6667,58.666337812500004Q91.7405,58.666337812500004,91.813,58.6519278125Q91.8854,58.6375178125,91.9537,58.6092478125Q92.0219,58.5809778125,92.0833,58.5399378125Q92.1447,58.4988978125,92.197,58.446667812499996Q92.2492,58.3944378125,92.2903,58.3330178125Q92.3313,58.2715978125,92.3596,58.2033478125Q92.3878,58.135107812499996,92.4022,58.0626578125Q92.4167,57.9902078125,92.4167,57.916337812500004Q92.4167,57.7523278125,92.3482,57.6032878125Q92.2798,57.4542478125,92.1553,57.3473878125L85.3637,51.5140578125Q82.7154,49.2392578125,79,49.2392578125Q75.2846,49.2392578125,72.6363,51.5140778125L55.3032,66.38885781249999Q53.0763,68.3017578125,49.9167,68.3017578125Q46.7571,68.3017578125,44.5304,66.3890578125L43.1618,65.1862578125Q40.7432,63.1083578125,37.3313,62.9277578125Q33.9257,62.7476578125,31.2488,64.5435578125L10.706937,78.3353578125Q10.630313,78.38675781250001,10.568448,78.45525781250001Q10.506582,78.52375781250001,10.463166,78.6051578125Q10.419751,78.6866578125,10.397375,78.7761578125Q10.375,78.8657578125,10.375,78.9579578125Q10.375,79.0318578125,10.389410999999999,79.1043578125Q10.403822,79.1767578125,10.43209,79.2450578125Q10.460359,79.3132578125,10.501398,79.3746578125Q10.542437,79.4360578125,10.59467,79.4883578125Q10.646903,79.5405578125,10.708322,79.5816578125Q10.769742,79.6226578125,10.837987,79.6509578125Q10.906233,79.6791578125,10.978682,79.6935578125Q11.0511315,79.7079578125,11.125,79.7079578125Q11.353421,79.7079578125,11.543063,79.5806578125L32.0845,65.7891578125Q34.346000000000004,64.2719578125,37.251999999999995,64.4257578125Q40.1535,64.5792578125,42.1716,66.3130578125L43.553,67.5269578125Q46.2013,69.8017578125,49.9167,69.8017578125Q53.6321,69.8017578125,56.2801,67.52715781250001L73.6137,52.6519378125Q75.8404,50.7392578125,79,50.7392578125Q82.1596,50.7392578125,84.3863,52.6519578125Z" fill-rule="evenodd" fill="currentColor" fill-opacity="1"/></g><g style="opacity:0;"></g></g></g></g></svg>