<svg xmlns="http://www.w3.org/2000/svg" xmlns:xlink="http://www.w3.org/1999/xlink" fill="none" version="1.1" viewBox="0 0 30 30"><g><g><g><path d="M21.444157812500002,5.456659999999999Q22.8449578125,6.83807,22.9383578125,8.77636Q22.9455578125,8.925370000000001,22.895157812500003,9.06578Q22.8447578125,9.206199999999999,22.744457812500002,9.31665Q22.6442578125,9.42709,22.5092578125,9.49075Q22.3743578125,9.55441,22.2253578125,9.561589999999999Q22.145157812500003,9.56545,22.065957812500002,9.55226Q21.752257812499998,9.49998,21.2517578125,9.49998L8.7517578125,9.49998Q8.2840958125,9.49998,7.8532998125,9.56625Q7.7058501125,9.588940000000001,7.5609438125,9.55347Q7.4160368125,9.518,7.2957338125,9.429780000000001Q7.1754318125,9.34155,7.0980478125,9.21401Q7.0206628125,9.086459999999999,6.9979788124999995,8.93901Q6.9616808125,8.70307,7.0684378125,8.48956Q7.3728268125,7.88078,7.9339278125,7.31968L11.9956178125,3.245486Q13.5020778125,1.75,15.6267578125,1.75Q17.7514578125,1.75,19.255157812500002,3.242731L21.444157812500002,5.456659999999999ZM18.1983578125,4.30727L20.3809578125,6.51476L20.388157812499998,6.52194Q21.0508578125,7.17436,21.2979578125,8.00008Q21.2749578125,7.99998,21.2517578125,7.99998L9.3737878125,7.99998L13.0579078125,4.3045100000000005Q14.1201878125,3.25,15.6267578125,3.25Q17.1333278125,3.25,18.1983578125,4.30727Z" fill-rule="evenodd" fill="#FFFFFF" fill-opacity="1"/></g><g><g><path d="M10.31627,19.683732Q8.632539999999999,18,6.25,18Q3.86746,18,2.183732,19.683732Q0.5,21.36747,0.5,23.75Q0.5,25.36198,1.330414,26.70841Q2.089288,27.9842,3.37529,28.73003Q4.702920000000001,29.5,6.25,29.5Q7.79708,29.5,9.12471,28.73003Q10.41071,27.9842,11.16338,26.71866Q12,25.36198,12,23.75Q12,21.36747,10.31627,19.683732ZM3.24439,20.74439Q4.48879,19.5,6.25,19.5Q8.01122,19.5,9.25561,20.74439Q10.5,21.98879,10.5,23.75Q10.5,24.93666,9.88662,25.93133Q9.32088,26.88225,8.37217,27.43246Q7.39359,28,6.25,28Q5.10641,28,4.127829999999999,27.43246Q3.17912,26.88225,2.61959,25.941580000000002Q2,24.93666,2,23.75Q2,21.98878,3.24439,20.74439Z" fill-rule="evenodd" fill="#FFFFFF" fill-opacity="1"/></g><g><g><path d="M4.3896484375,22.974609375L8.1146484375,22.974609375Q8.1885184375,22.974609375,8.2609684375,22.989020375Q8.3334184375,23.003431375,8.4016584375,23.031699375Q8.469908437499999,23.059968375,8.531328437500001,23.101007375000002Q8.5927484375,23.142046375,8.6449784375,23.194279375Q8.697208437499999,23.246512375000002,8.738248437500001,23.307931375Q8.7792884375,23.369351375,8.8075584375,23.437596375Q8.8358284375,23.505842375,8.8502384375,23.578291375Q8.8646484375,23.650740875,8.8646484375,23.724609375Q8.8646484375,23.798477875,8.8502384375,23.870927375Q8.8358284375,23.943376375,8.8075584375,24.011622375Q8.7792884375,24.079867375,8.738248437500001,24.141287375Q8.697208437499999,24.202706374999998,8.6449784375,24.254939375Q8.5927484375,24.307172375,8.531328437500001,24.348211374999998Q8.469908437499999,24.389250375,8.4016584375,24.417519375Q8.3334184375,24.445787375,8.2609684375,24.460198375Q8.1885184375,24.474609375,8.1146484375,24.474609375L4.3896484375,24.474609375Q4.3157799375,24.474609375,4.2433304375,24.460198375Q4.1708814375,24.445787375,4.1026354375,24.417519375Q4.0343904375,24.389250375,3.9729704375,24.348211374999998Q3.9115514375,24.307172375,3.8593184375,24.254939375Q3.8070854375,24.202706374999998,3.7660464375,24.141287375Q3.7250074375,24.079867375,3.6967384375,24.011622375Q3.6684704375,23.943376375,3.6540594375,23.870927375Q3.6396484375,23.798477875,3.6396484375,23.724609375Q3.6396484375,23.650740875,3.6540594375,23.578291375Q3.6684704375,23.505842375,3.6967384375,23.437596375Q3.7250074375,23.369351375,3.7660464375,23.307931375Q3.8070854375,23.246512375000002,3.8593184375,23.194279375Q3.9115514375,23.142046375,3.9729704375,23.101007375000002Q4.0343904375,23.059968375,4.1026354375,23.031699375Q4.1708814375,23.003431375,4.2433304375,22.989020375Q4.3157799375,22.974609375,4.3896484375,22.974609375Z" fill-rule="evenodd" fill="#FFFFFF" fill-opacity="1"/></g><g><path d="M5.5,21.8994140625Q5.5,21.8255455625,5.514411,21.7530960625Q5.528822,21.6806470625,5.55709,21.6124010625Q5.585359,21.5441560625,5.626398,21.4827360625Q5.667437,21.421317062500002,5.71967,21.3690840625Q5.771903,21.3168510625,5.833322,21.275812062500002Q5.894742,21.2347730625,5.962987,21.2065040625Q6.031233,21.1782360625,6.103682,21.1638250625Q6.1761315,21.1494140625,6.25,21.1494140625Q6.3238685,21.1494140625,6.396318,21.1638250625Q6.468767,21.1782360625,6.537013,21.2065040625Q6.605258,21.2347730625,6.666678,21.275812062500002Q6.728097,21.3168510625,6.78033,21.3690840625Q6.832563,21.421317062500002,6.873602,21.4827360625Q6.914641,21.5441560625,6.94291,21.6124010625Q6.971178,21.6806470625,6.985589,21.7530960625Q7,21.8255455625,7,21.8994140625L7,25.6369040625Q7,25.7107740625,6.985589,25.7832240625Q6.971178,25.8556640625,6.94291,25.9239140625Q6.914641,25.9921640625,6.873602,26.0535740625Q6.832563,26.1149940625,6.78033,26.1672340625Q6.728097,26.219464062500002,6.666678,26.2605040625Q6.605258,26.3015440625,6.537013,26.3298140625Q6.468767,26.358074062500002,6.396318,26.3724940625Q6.3238685,26.3869040625,6.25,26.3869040625Q6.1761315,26.3869040625,6.103682,26.3724940625Q6.031233,26.358074062500002,5.962987,26.3298140625Q5.894742,26.3015440625,5.833322,26.2605040625Q5.771903,26.219464062500002,5.71967,26.1672340625Q5.667437,26.1149940625,5.626398,26.0535740625Q5.585359,25.9921640625,5.55709,25.9239140625Q5.528822,25.8556640625,5.514411,25.7832240625Q5.5,25.7107740625,5.5,25.6369040625L5.5,21.8994140625Z" fill-rule="evenodd" fill="#FFFFFF" fill-opacity="1"/></g></g></g><g style="opacity:0;"></g><g><path d="M22.2919,8.069592Q21.8612,8,21.25,8L8.75,8Q8.17319,8,7.63385,8.082127Q4.954549999999999,8.421559,3.352642,10.30099Q1.75,12.181280000000001,1.75,15L1.75,20.45Q1.75,20.6117,1.81663,20.759Q1.883261,20.906399999999998,2.004682,21.013199999999998Q2.116704,21.1117,2.257902,21.1598Q2.3991,21.208,2.5479792,21.1984Q2.696858,21.1889,2.8307510000000002,21.1231Q2.964645,21.057299999999998,3.0631690000000003,20.9453Q4.33434,19.5,6.25,19.5Q8.01122,19.5,9.25561,20.7444Q10.5,21.988799999999998,10.5,23.75Q10.5,24.9367,9.88662,25.9313Q9.8818,25.9392,9.87717,25.9471Q9.54692,26.5132,9.05554,26.9254Q8.92811,27.0322,8.85781,27.183Q8.7875,27.3337,8.7875,27.5Q8.7875,27.5739,8.80191,27.6463Q8.816320000000001,27.7188,8.84459,27.787Q8.87286,27.8553,8.9139,27.9167Q8.95494,27.9781,9.00717,28.0303Q9.0594,28.0826,9.12082,28.1236Q9.18224,28.1646,9.25049,28.1929Q9.31873,28.2212,9.39118,28.2356Q9.46363,28.25,9.5375,28.25L21.25,28.25Q24.3732,28.25,26.3116,26.3116Q28.25,24.3732,28.25,21.25L28.25,15Q28.25,12.16024,26.6209,10.27249Q24.996,8.389577,22.2919,8.069592ZM22.0642,9.55228Q22.0825,9.555326,22.1009,9.557465Q26.75,10.09806,26.75,15L26.75,21.25Q26.75,23.7518,25.2509,25.2509Q23.7518,26.75,21.25,26.75L11.14504,26.75Q11.15667,26.7305,11.16816,26.7109Q12,25.3574,12,23.75Q12,21.3675,10.31627,19.6837Q8.63253,18,6.25,18Q4.56555,18,3.25,18.824199999999998L3.25,15Q3.25,10.14402,7.83089,9.56916Q7.84123,9.567862,7.85154,9.566276Q8.28233,9.5,8.75,9.5L21.25,9.5Q21.7505,9.5,22.0642,9.55228Z" fill-rule="evenodd" fill="#FFFFFF" fill-opacity="1"/></g><g><path d="M23.75,21.375L27.5,21.375Q27.57387,21.375,27.64632,21.360590000000002Q27.71877,21.34618,27.787010000000002,21.31791Q27.85526,21.28964,27.91668,21.2486Q27.9781,21.20756,28.03033,21.15533Q28.08256,21.1031,28.1236,21.04168Q28.16464,20.98026,28.19291,20.912010000000002Q28.22118,20.84377,28.235590000000002,20.77132Q28.25,20.69887,28.25,20.625Q28.25,20.55113,28.235590000000002,20.47868Q28.22118,20.40623,28.19291,20.337989999999998Q28.16464,20.26974,28.1236,20.20832Q28.08256,20.1469,28.03033,20.09467Q27.9781,20.04244,27.91668,20.0014Q27.85526,19.96036,27.787010000000002,19.93209Q27.71877,19.90382,27.64632,19.889409999999998Q27.57387,19.875,27.5,19.875L23.75,19.875Q23.02941,19.875,22.51471,19.3603Q22,18.84559,22,18.125Q22,17.40441,22.51471,16.88971Q23.02941,16.375,23.75,16.375L27.5,16.375Q27.57387,16.375,27.64632,16.360589Q27.71877,16.346178,27.787010000000002,16.31791Q27.85526,16.289641,27.91668,16.248601999999998Q27.9781,16.207563,28.03033,16.15533Q28.08256,16.103096999999998,28.1236,16.041678Q28.16464,15.980258,28.19291,15.912013Q28.22118,15.843767,28.235590000000002,15.771318Q28.25,15.6988685,28.25,15.625Q28.25,15.5511315,28.235590000000002,15.478682Q28.22118,15.406233,28.19291,15.337987Q28.16464,15.269742,28.1236,15.208322Q28.08256,15.146903,28.03033,15.09467Q27.9781,15.042437,27.91668,15.001398Q27.85526,14.960359,27.787010000000002,14.93209Q27.71877,14.903822,27.64632,14.889410999999999Q27.57387,14.875,27.5,14.875L23.75,14.875Q22.40809,14.875,21.454045,15.829045Q20.5,16.78309,20.5,18.125Q20.5,19.46691,21.454045,20.42096Q22.40809,21.375,23.75,21.375Z" fill-rule="evenodd" fill="#FFFFFF" fill-opacity="1"/></g></g></g></svg>