<svg xmlns="http://www.w3.org/2000/svg" xmlns:xlink="http://www.w3.org/1999/xlink" fill="none" version="1.1" viewBox="0 0 30 30"><g><g><g><g><path d="M20.0944796875,5.0944746875L3.8444746875,21.3444796875Q2.8466796875,22.3422796875,2.8466796875,23.7497796875Q2.8466796875,25.1573796875,3.8444746875,26.1551796875Q4.8422696875,27.1528796875,6.2497996874999995,27.1528796875Q7.6573396875,27.1528796875,8.6551296875,26.1551796875L24.9051796875,9.9051296875Q25.9028796875,8.9073396875,25.9028796875,7.4998096875Q25.9028796875,6.0922696875,24.9051796875,5.0944746875Q23.9073796875,4.0966796875,22.4997796875,4.0966796875Q21.0922796875,4.0966796875,20.0944796875,5.0944746875ZM4.9051396875,25.0944796875Q3.5604683875,23.7497796875,4.9051396875,22.4051796875L21.1551796875,6.1551396875Q22.4997796875,4.8104683875,23.8444796875,6.1551396875Q25.1891796875,7.4997996874999995,23.8444796875,8.8444696875L7.5944696875,25.0944796875Q7.0360196875,25.6528796875,6.2497996874999995,25.6528796875Q5.4635896875,25.6528796875,4.9051396875,25.0944796875Z" fill-rule="evenodd" fill="currentColor" fill-opacity="1"/></g><g><path d="M19.29220275,6.9571286875L23.04189875,10.7068246875L23.04204875,10.7069746875Q23.14753875,10.8124646875,23.20462875,10.9502946875Q23.26171875,11.0881246875,23.26171875,11.2373046875Q23.26171875,11.3111746875,23.247308750000002,11.3836246875Q23.23289875,11.4560746875,23.20462875,11.5243146875Q23.17635875,11.592564687500001,23.13531875,11.6539846875Q23.09427875,11.715404687500001,23.04204875,11.7676346875Q22.98981875,11.8198646875,22.92839875,11.8609046875Q22.86697875,11.9019446875,22.798728750000002,11.930214687500001Q22.73048875,11.9584846875,22.65803875,11.9728946875Q22.58558875,11.9873046875,22.51171875,11.9873046875Q22.36253875,11.9873046875,22.22470875,11.930214687500001Q22.08687875,11.873124687499999,21.98138875,11.7676346875L18.23154275,8.0177886875L18.23138875,8.0176346875Q18.12589975,7.9121456875,18.06880875,7.7743176875Q18.01171875,7.6364886875,18.01171875,7.4873046875Q18.01171875,7.4134361875,18.02612975,7.3409866875Q18.04054075,7.2685376875,18.06880875,7.2002916875Q18.09707775,7.1320466875,18.138116750000002,7.0706266875Q18.17915575,7.0092076875,18.23138875,6.9569746875Q18.283621750000002,6.9047416875,18.34504075,6.8637026875Q18.40646075,6.8226636875,18.47470575,6.7943946875Q18.54295175,6.7661266875,18.61540075,6.7517156875Q18.68785025,6.7373046875,18.76171875,6.7373046875Q18.91090275,6.7373046875,19.04873175,6.7943946875Q19.18655975,6.8514856875,19.29204875,6.9569746875L19.29220275,6.9571286875Z" fill-rule="evenodd" fill="currentColor" fill-opacity="1"/></g><g><path d="M10.625,2.5289328L8.890737,2.020216Q8.75,1.978933,8.609263,2.020216Q8.562009,2.034077,8.518366,2.0568910000000002Q8.474724,2.079705,8.436371,2.110595Q8.398018,2.141484,8.366427999999999,2.179263Q8.334838,2.217042,8.311225,2.260257Q8.287613,2.303473,8.272885,2.350464Q8.258157,2.397456,8.252879,2.4464183Q8.247602,2.4953804,8.251978,2.5444313Q8.256354,2.5934822,8.270216,2.640737L8.7789328,4.375L8.270216,6.10926Q8.228933,6.25,8.270216,6.39074Q8.284077,6.43799,8.306891,6.48163Q8.329705,6.52528,8.360595,6.56363Q8.391484,6.60198,8.429263,6.63357Q8.467042,6.66516,8.510257,6.68877Q8.553473,6.71239,8.600464,6.72711Q8.647456,6.74184,8.6964183,6.74712Q8.74538037,6.7524,8.7944312,6.74802Q8.8434821,6.74365,8.890737,6.72978L10.625,6.22107L12.359259999999999,6.72978Q12.5,6.77107,12.640740000000001,6.72978Q12.68799,6.71592,12.73163,6.69311Q12.77528,6.67029,12.81363,6.63941Q12.851980000000001,6.60852,12.883569999999999,6.57074Q12.91516,6.53296,12.93877,6.489739999999999Q12.96239,6.44653,12.97711,6.39954Q12.99184,6.352539999999999,12.997119999999999,6.30358Q13.0024,6.25462,12.99802,6.20557Q12.993649999999999,6.15652,12.97978,6.10926L12.471070000000001,4.375L12.97978,2.640737Q13.02107,2.5,12.97978,2.359263Q12.96592,2.312009,12.94311,2.268366Q12.92029,2.224724,12.8894,2.186371Q12.85852,2.148018,12.82074,2.116428Q12.78296,2.084838,12.73974,2.061225Q12.69653,2.037613,12.64954,2.022885Q12.60254,2.008157,12.55358,2.002879Q12.50462,1.997602,12.45557,2.001978Q12.40652,2.006354,12.359259999999999,2.020216L10.625,2.5289328ZM9.487359,3.237359L9.77978,4.23426Q9.82107,4.375,9.77978,4.51574L9.487359,5.51264L10.484259999999999,5.220219999999999Q10.625,5.178929999999999,10.765740000000001,5.220219999999999L11.762640000000001,5.51264L11.47022,4.51574Q11.42893,4.375,11.47022,4.23426L11.762640000000001,3.237359L10.765740000000001,3.5297799999999997Q10.625,3.5710699999999997,10.484259999999999,3.5297799999999997L9.487359,3.237359Z" fill-rule="evenodd" fill="currentColor" fill-opacity="1"/></g><g><path d="M5.625,10.0289328L3.890737,9.520216Q3.75,9.478933,3.609263,9.520216Q3.562009,9.534077,3.518366,9.556891Q3.474724,9.579705,3.436371,9.610595Q3.398018,9.641484,3.366428,9.679263Q3.334838,9.717042,3.311225,9.760257Q3.287613,9.803473,3.272885,9.850464Q3.258157,9.897456,3.252879,9.9464183Q3.247602,9.9953804,3.251978,10.0444313Q3.256354,10.0934822,3.270216,10.140737L3.7789328,11.875L3.270216,13.609259999999999Q3.228933,13.75,3.270216,13.890740000000001Q3.284077,13.93799,3.3068910000000002,13.98163Q3.329705,14.02528,3.360595,14.06363Q3.391484,14.101980000000001,3.429263,14.133569999999999Q3.467042,14.16516,3.510257,14.18877Q3.553473,14.21239,3.600464,14.22711Q3.647456,14.24184,3.6964183,14.247119999999999Q3.74538037,14.2524,3.7944312,14.24802Q3.8434821,14.243649999999999,3.890737,14.22978L5.625,13.721070000000001L7.35926,14.22978Q7.5,14.27107,7.64074,14.22978Q7.68799,14.21592,7.73163,14.19311Q7.77528,14.17029,7.81363,14.13941Q7.85198,14.10852,7.88357,14.07074Q7.91516,14.03296,7.93877,13.98974Q7.96239,13.94653,7.97711,13.89954Q7.99184,13.85254,7.99712,13.80358Q8.0024,13.75462,7.99802,13.70557Q7.99365,13.65652,7.97978,13.609259999999999L7.47107,11.875L7.97978,10.140737Q8.02107,10,7.97978,9.859263Q7.96592,9.812009,7.94311,9.768366Q7.92029,9.724724,7.8894,9.686371Q7.85852,9.648018,7.82074,9.616427999999999Q7.78296,9.584838,7.739739999999999,9.561225Q7.69653,9.537613,7.64954,9.522885Q7.602539999999999,9.508157,7.55358,9.502879Q7.50462,9.497602,7.45557,9.501978Q7.40652,9.506354,7.35926,9.520216L5.625,10.0289328ZM4.487359,10.737359L4.77978,11.734259999999999Q4.82107,11.875,4.77978,12.015740000000001L4.487359,13.012640000000001L5.48426,12.72022Q5.625,12.67893,5.76574,12.72022L6.76264,13.012640000000001L6.470219999999999,12.015740000000001Q6.428929999999999,11.875,6.470219999999999,11.734259999999999L6.76264,10.737359L5.76574,11.02978Q5.625,11.07107,5.48426,11.02978L4.487359,10.737359Z" fill-rule="evenodd" fill="currentColor" fill-opacity="1"/></g><g><path d="M24.375,16.2789328L22.640737,15.770216Q22.5,15.728933,22.359263,15.770216Q22.312009,15.784077,22.268366,15.806891Q22.224724,15.829705,22.186371,15.860595Q22.148018,15.891484,22.116428,15.929263Q22.084838,15.967042,22.061225,16.010257Q22.037613,16.053473,22.022885,16.100464Q22.008157,16.147456,22.002879,16.1964183Q21.997602,16.2453804,22.001978,16.2944313Q22.006354,16.3434822,22.020216,16.390737L22.5289328,18.125L22.020216,19.85926Q21.978933,20,22.020216,20.14074Q22.034077,20.18799,22.056891,20.23163Q22.079705,20.275280000000002,22.110595,20.31363Q22.141484,20.35198,22.179263,20.38357Q22.217042,20.41516,22.260257,20.438769999999998Q22.303473,20.46239,22.350464,20.47711Q22.397456,20.49184,22.4464183,20.49712Q22.49538037,20.5024,22.5444312,20.49802Q22.5934821,20.49365,22.640737,20.479779999999998L24.375,19.97107L26.10926,20.479779999999998Q26.25,20.52107,26.39074,20.479779999999998Q26.43799,20.46592,26.48163,20.44311Q26.525280000000002,20.42029,26.56363,20.389409999999998Q26.60198,20.35852,26.63357,20.32074Q26.66516,20.28296,26.688769999999998,20.23974Q26.71239,20.19653,26.72711,20.149540000000002Q26.74184,20.10254,26.74712,20.05358Q26.7524,20.00462,26.74802,19.95557Q26.74365,19.90652,26.729779999999998,19.85926L26.22107,18.125L26.729779999999998,16.390737Q26.77107,16.25,26.729779999999998,16.109263Q26.71592,16.062009,26.69311,16.018366Q26.67029,15.974724,26.639400000000002,15.936371Q26.60852,15.898018,26.57074,15.866427999999999Q26.53296,15.834838,26.48974,15.811225Q26.44653,15.787613,26.399540000000002,15.772885Q26.35254,15.758157,26.30358,15.752879Q26.25462,15.747602,26.20557,15.751978Q26.15652,15.756354,26.10926,15.770216L24.375,16.2789328ZM23.237359,16.987359L23.52978,17.98426Q23.57107,18.125,23.52978,18.26574L23.237359,19.26264L24.23426,18.97022Q24.375,18.92893,24.51574,18.97022L25.51264,19.26264L25.22022,18.26574Q25.17893,18.125,25.22022,17.98426L25.51264,16.987359L24.51574,17.27978Q24.375,17.32107,24.23426,17.27978L23.237359,16.987359Z" fill-rule="evenodd" fill="currentColor" fill-opacity="1"/></g><g style="opacity:0;"></g></g></g></g></svg>