<svg xmlns="http://www.w3.org/2000/svg" xmlns:xlink="http://www.w3.org/1999/xlink" fill="none" version="1.1" width="30" height="30" viewBox="0 0 30 30"><g><g><g><g><path d="M17.82334375,10.5436446875Q18.42734375,11.1777546875,18.42734375,12.0873046875Q18.42734375,12.1611746875,18.44175375,12.2336246875Q18.45616375,12.3060746875,18.48443375,12.3743146875Q18.51270375,12.442564687499999,18.55374375,12.503984687500001Q18.59478375,12.5654046875,18.64701375,12.6176346875Q18.69924375,12.6698646875,18.76066375,12.7109046875Q18.82208375,12.7519446875,18.89033375,12.7802146875Q18.95857375,12.8084846875,19.03102375,12.8228946875Q19.10347375,12.8373046875,19.17734375,12.8373046875Q19.251213749999998,12.8373046875,19.32366375,12.8228946875Q19.39610375,12.8084846875,19.46435375,12.7802146875Q19.53260375,12.7519446875,19.594023749999998,12.7109046875Q19.65544375,12.6698646875,19.707673749999998,12.6176346875Q19.75990375,12.5654046875,19.800943750000002,12.503984687500001Q19.84198375,12.442564687499999,19.87025375,12.3743146875Q19.898523750000003,12.3060746875,19.91293375,12.2336246875Q19.92734375,12.1611746875,19.92734375,12.0873046875Q19.92734375,10.5776946875,18.90947375,9.5090856875Q17.876673750000002,8.4248046875,16.40234375,8.4248046875L13.26484375,8.4248046875Q11.94100375,8.4248046875,11.00859875,9.4003466875Q10.08984375,10.3616046875,10.08984375,11.7123046875Q10.08984375,14.0698846875,12.23929375,14.8317146875L17.28122375,16.5832746875Q17.89558375,16.8010346875,18.13239375,17.1031346875Q18.42734375,17.4793846875,18.42734375,18.2873046875Q18.42734375,19.036454687499997,17.92422375,19.562804687499998Q17.43490375,20.0748046875,16.75234375,20.0748046875L13.61484375,20.0748046875Q12.78331375,20.0748046875,12.19384375,19.4560046875Q11.58984375,18.8218546875,11.58984375,17.9123046875Q11.58984375,17.838434687499998,11.575432750000001,17.7659846875Q11.56102175,17.693534687499998,11.53275375,17.625294687500002Q11.50448475,17.5570446875,11.46344575,17.495624687499998Q11.42240675,17.4342046875,11.37017375,17.381974687499998Q11.31794075,17.3297446875,11.25652175,17.2887046875Q11.19510175,17.2476646875,11.12685675,17.2193946875Q11.05861075,17.1911246875,10.98616175,17.176714687500002Q10.91371225,17.1623046875,10.83984375,17.1623046875Q10.76597525,17.1623046875,10.69352575,17.176714687500002Q10.62107675,17.1911246875,10.55283075,17.2193946875Q10.48458575,17.2476646875,10.42316575,17.2887046875Q10.36174675,17.3297446875,10.30951375,17.381974687499998Q10.25728075,17.4342046875,10.21624175,17.495624687499998Q10.17520275,17.5570446875,10.14693375,17.625294687500002Q10.11866575,17.693534687499998,10.104254749999999,17.7659846875Q10.08984375,17.838434687499998,10.08984375,17.9123046875L10.08984375,17.912954687499997Q10.09006475,19.4221046875,11.10771675,20.4905046875Q12.14051375,21.5748046875,13.61484375,21.5748046875L16.75234375,21.5748046875Q18.07618375,21.5748046875,19.00858375,20.599304687500002Q19.92734375,19.6380046875,19.92734375,18.2873046875Q19.92734375,15.9297246875,17.77346375,15.166334687500001L12.740393749999999,13.417894687499999Q12.12160375,13.198574687499999,11.88479375,12.8964746875Q11.58984375,12.5202246875,11.58984375,11.7123046875Q11.58984375,10.9631546875,12.09296375,10.4367646875Q12.58228375,9.9248046875,13.26484375,9.9248046875L16.40234375,9.9248046875Q17.23387375,9.9248046875,17.82334375,10.5436446875Z" fill-rule="evenodd" fill="#FFFFFF" fill-opacity="1"/></g><g><path d="M14.25,7.5Q14.25,7.4261315,14.264410999999999,7.353682Q14.278822,7.281233,14.30709,7.212987Q14.335359,7.144742,14.376398,7.083322Q14.417437,7.021903,14.46967,6.96967Q14.521903,6.917437,14.583322,6.876398Q14.644742,6.835359,14.712987,6.80709Q14.781233,6.778822,14.853682,6.764411Q14.9261315,6.75,15,6.75Q15.0738685,6.75,15.146318,6.764411Q15.218767,6.778822,15.287013,6.80709Q15.355258,6.835359,15.416678,6.876398Q15.478097,6.917437,15.53033,6.96967Q15.582563,7.021903,15.623602,7.083322Q15.664641,7.144742,15.69291,7.212987Q15.721178,7.281233,15.735589000000001,7.353682Q15.75,7.4261315,15.75,7.5L15.75,22.5Q15.75,22.573900000000002,15.735589000000001,22.6463Q15.721178,22.7188,15.69291,22.787Q15.664641,22.8553,15.623602,22.9167Q15.582563,22.978099999999998,15.53033,23.0303Q15.478097,23.0826,15.416678,23.1236Q15.355258,23.1646,15.287013,23.1929Q15.218767,23.2212,15.146318,23.235599999999998Q15.0738685,23.25,15,23.25Q14.9261315,23.25,14.853682,23.235599999999998Q14.781233,23.2212,14.712987,23.1929Q14.644742,23.1646,14.583322,23.1236Q14.521903,23.0826,14.46967,23.0303Q14.417437,22.978099999999998,14.376398,22.9167Q14.335359,22.8553,14.30709,22.787Q14.278822,22.7188,14.264410999999999,22.6463Q14.25,22.573900000000002,14.25,22.5L14.25,7.5Z" fill-rule="evenodd" fill="#FFFFFF" fill-opacity="1"/></g><g><path d="M25.9991,25.9991Q28.25,23.7482,28.25,18.75L28.25,11.25Q28.25,6.25184,25.9991,4.00092Q23.7482,1.75,18.75,1.75L11.25,1.75Q6.25184,1.75,4.00092,4.00092Q1.75,6.25184,1.75,11.25L1.75,18.75Q1.75,23.7482,4.00092,25.9991Q6.25184,28.25,11.25,28.25L18.75,28.25Q23.7482,28.25,25.9991,25.9991ZM26.75,11.25L26.75,18.75Q26.75,23.1268,24.9384,24.9384Q23.1268,26.75,18.75,26.75L11.25,26.75Q6.87316,26.75,5.06158,24.9384Q3.25,23.1268,3.25,18.75L3.25,11.25Q3.25,6.87316,5.06158,5.06158Q6.87316,3.25,11.25,3.25L18.75,3.25Q23.1268,3.25,24.9384,5.06158Q26.75,6.87316,26.75,11.25Z" fill-rule="evenodd" fill="#FFFFFF" fill-opacity="1"/></g><g style="opacity:0;"></g></g></g></g></svg>