<svg xmlns="http://www.w3.org/2000/svg" xmlns:xlink="http://www.w3.org/1999/xlink" fill="none" version="1.1" width="30" height="30" viewBox="0 0 30 30"><g><g><g><g><path d="M24.3678,5.63217Q20.4857,1.75,15,1.75Q14.9261,1.75,14.8537,1.764411Q14.7812,1.778822,14.713,1.80709Q14.6447,1.835359,14.5833,1.876398Q14.5219,1.917437,14.4697,1.96967Q14.4174,2.021903,14.3764,2.083322Q14.3354,2.144742,14.3071,2.212987Q14.2788,2.281233,14.2644,2.353682Q14.25,2.4261315,14.25,2.5Q14.25,2.5738685,14.2644,2.646318Q14.2788,2.718767,14.3071,2.787013Q14.3354,2.855258,14.3764,2.916678Q14.4174,2.978097,14.4697,3.03033Q14.5219,3.082563,14.5833,3.123602Q14.6447,3.164641,14.713,3.19291Q14.7812,3.221178,14.8537,3.235589Q14.9261,3.25,15,3.25Q19.8643,3.25,23.3072,6.69283Q26.75,10.13566,26.75,15Q26.75,19.8643,23.3072,23.3072Q19.8643,26.75,15,26.75Q10.13566,26.75,6.69283,23.3072Q3.249998,19.8643,3.249999,15Q3.25,11.05424,5.62329,7.91478Q5.69712,7.81711,5.73606,7.70102Q5.775,7.58494,5.775,7.4625Q5.775,7.38863,5.7605900000000005,7.31618Q5.74618,7.24373,5.71791,7.17549Q5.68964,7.10724,5.6486,7.04582Q5.607559999999999,6.9844,5.55533,6.93217Q5.5031,6.87994,5.44168,6.8389Q5.38026,6.79786,5.31201,6.76959Q5.24377,6.74132,5.17132,6.72691Q5.09887,6.7125,5.025,6.7125Q4.93804,6.7125,4.85338,6.7324Q4.76872,6.7523,4.69086,6.79104Q4.61301,6.82979,4.54608,6.88532Q4.47916,6.94085,4.42671,7.01022L4.42593,7.01127Q1.75,10.55173,1.7499989999999999,15Q1.75,20.4857,5.63217,24.3678Q9.51434,28.25,15,28.25Q20.4857,28.25,24.3678,24.3678Q28.25,20.4857,28.25,15Q28.25,9.514330000000001,24.3678,5.63217Z" fill-rule="evenodd" fill="#FFFFFF" fill-opacity="1"/></g><g><path d="M21.7194,8.28061Q18.9388,5.5,15,5.5Q14.92613,5.5,14.85368,5.514411Q14.78123,5.528822,14.71299,5.55709Q14.64474,5.585359,14.58332,5.626398Q14.5219,5.667437,14.46967,5.71967Q14.41744,5.771903,14.3764,5.833322Q14.33536,5.894742,14.30709,5.962987Q14.27882,6.031233,14.26441,6.103682Q14.25,6.1761315,14.25,6.25Q14.25,6.3238685,14.26441,6.396318Q14.27882,6.468767,14.30709,6.537013Q14.33536,6.605258,14.3764,6.666678Q14.41744,6.728097,14.46967,6.78033Q14.5219,6.832563,14.58332,6.873602Q14.64474,6.914641,14.71299,6.94291Q14.78123,6.971178,14.85368,6.985589Q14.92613,7,15,7Q18.317500000000003,7,20.6587,9.34127Q23,11.68254,23,15Q23,18.317500000000003,20.6587,20.6587Q18.317500000000003,23,15,23Q11.68254,23,9.34127,20.6587Q7,18.317500000000003,7,15Q7,14.92613,6.985589,14.85368Q6.971178,14.78123,6.94291,14.71299Q6.914641,14.64474,6.873602,14.58332Q6.832563,14.5219,6.78033,14.46967Q6.728097,14.41744,6.666678,14.3764Q6.605258,14.33536,6.537013,14.30709Q6.468767,14.27882,6.396318,14.26441Q6.3238685,14.25,6.25,14.25Q6.1761315,14.25,6.103682,14.26441Q6.031233,14.27882,5.962987,14.30709Q5.894742,14.33536,5.833322,14.3764Q5.771903,14.41744,5.71967,14.46967Q5.667437,14.5219,5.626398,14.58332Q5.585359,14.64474,5.55709,14.71299Q5.528822,14.78123,5.514411,14.85368Q5.5,14.92613,5.5,15Q5.5,18.9388,8.28061,21.7194Q11.061219999999999,24.5,15,24.5Q18.9388,24.5,21.7194,21.7194Q24.5,18.9388,24.5,15Q24.5,11.061219999999999,21.7194,8.28061Z" fill-rule="evenodd" fill="#FFFFFF" fill-opacity="1"/></g><g><path d="M15,9.25Q17.38254,9.25,19.06627,10.933732Q20.75,12.61747,20.75,15Q20.75,17.38254,19.06627,19.06627Q17.38253,20.75,15,20.75Q14.9261315,20.75,14.853682,20.735599999999998Q14.781233,20.7212,14.712987,20.6929Q14.644742,20.6646,14.583322,20.6236Q14.521903,20.5826,14.46967,20.5303Q14.417437,20.478099999999998,14.376398,20.4167Q14.335359,20.3553,14.30709,20.287Q14.278822,20.2188,14.264410999999999,20.1463Q14.25,20.073900000000002,14.25,20Q14.25,19.92613,14.264410999999999,19.85368Q14.278822,19.78123,14.30709,19.712989999999998Q14.335359,19.64474,14.376398,19.58332Q14.417437,19.521900000000002,14.46967,19.46967Q14.521903,19.41744,14.583322,19.3764Q14.644742,19.33536,14.712987,19.307090000000002Q14.781233,19.27882,14.853682,19.264409999999998Q14.9261315,19.25,15,19.25Q16.76121,19.25,18.00561,18.00561Q19.25,16.76122,19.25,15Q19.25,13.23879,18.00561,11.99439Q16.76122,10.75,15,10.75Q14.9261315,10.75,14.853682,10.735589000000001Q14.781233,10.721178,14.712987,10.69291Q14.644742,10.664641,14.583322,10.623602Q14.521903,10.582563,14.46967,10.53033Q14.417437,10.478097,14.376398,10.416678Q14.335359,10.355258,14.30709,10.287013Q14.278822,10.218767,14.264410999999999,10.146318Q14.25,10.0738685,14.25,10Q14.25,9.9261315,14.264410999999999,9.853682Q14.278822,9.781233,14.30709,9.712987Q14.335359,9.644742,14.376398,9.583322Q14.417437,9.521903,14.46967,9.46967Q14.521903,9.417437,14.583322,9.376398Q14.644742,9.335359,14.712987,9.30709Q14.781233,9.278822,14.853682,9.264410999999999Q14.9261315,9.25,15,9.25Z" fill-rule="evenodd" fill="#FFFFFF" fill-opacity="1"/></g><g style="opacity:0;"></g></g></g></g></svg>