<svg xmlns="http://www.w3.org/2000/svg" xmlns:xlink="http://www.w3.org/1999/xlink" fill="none" version="1.1" width="30" height="30" viewBox="0 0 30 30"><g><g><g><g><path d="M7.849609375,20.099609375Q7.849609375,20.025740875,7.864020375,19.953291375Q7.878431375,19.880842375,7.906699375,19.812596375Q7.934968375,19.744351375,7.976007375,19.682931375Q8.017046375,19.621512375000002,8.069279375,19.569279375Q8.121512375,19.517046375,8.182931375,19.476007375000002Q8.244351375,19.434968375,8.312596375,19.406699375Q8.380842375,19.378431375,8.453291375,19.364020375Q8.525740875,19.349609375,8.599609375,19.349609375Q8.673477875,19.349609375,8.745927375,19.364020375Q8.818376375,19.378431375,8.886622375,19.406699375Q8.954867375,19.434968375,9.016287375,19.476007375000002Q9.077706375,19.517046375,9.129939375,19.569279375Q9.182172375,19.621512375000002,9.223211375,19.682931375Q9.264250375,19.744351375,9.292519375,19.812596375Q9.320787375,19.880842375,9.335198375000001,19.953291375Q9.349609375,20.025740875,9.349609375,20.099609375L9.349609375,22.687109375Q9.349609375,22.760979374999998,9.335198375000001,22.833429375Q9.320787375,22.905879375,9.292519375,22.974119375Q9.264250375,23.042369375,9.223211375,23.103789374999998Q9.182172375,23.165209375,9.129939375,23.217439375Q9.077706375,23.269669375,9.016287375,23.310709375000002Q8.954867375,23.351749375,8.886622375,23.380019375Q8.818376375,23.408289375,8.745927375,23.422699375Q8.673477875,23.437109375,8.599609375,23.437109375Q8.525740875,23.437109375,8.453291375,23.422699375Q8.380842375,23.408289375,8.312596375,23.380019375Q8.244351375,23.351749375,8.182931375,23.310709375000002Q8.121512375,23.269669375,8.069279375,23.217439375Q8.017046375,23.165209375,7.976007375,23.103789374999998Q7.934968375,23.042369375,7.906699375,22.974119375Q7.878431375,22.905879375,7.864020375,22.833429375Q7.849609375,22.760979374999998,7.849609375,22.687109375L7.849609375,20.099609375Z" fill-rule="evenodd" fill="#FFFFFF" fill-opacity="1"/></g><g><path d="M14.25,17.5126953125Q14.25,17.4388268125,14.264410999999999,17.3663773125Q14.278822,17.2939283125,14.30709,17.2256823125Q14.335359,17.1574373125,14.376398,17.0960173125Q14.417437,17.034598312500002,14.46967,16.9823653125Q14.521903,16.9301323125,14.583322,16.889093312500002Q14.644742,16.8480543125,14.712987,16.8197853125Q14.781233,16.7915173125,14.853682,16.7771063125Q14.9261315,16.7626953125,15,16.7626953125Q15.0738685,16.7626953125,15.146318,16.7771063125Q15.218767,16.7915173125,15.287013,16.8197853125Q15.355258,16.8480543125,15.416678,16.889093312500002Q15.478097,16.9301323125,15.53033,16.9823653125Q15.582563,17.034598312500002,15.623602,17.0960173125Q15.664641,17.1574373125,15.69291,17.2256823125Q15.721178,17.2939283125,15.735589000000001,17.3663773125Q15.75,17.4388268125,15.75,17.5126953125L15.75,22.6876953125Q15.75,22.7615653125,15.735589000000001,22.8340153125Q15.721178,22.9064653125,15.69291,22.9747053125Q15.664641,23.0429553125,15.623602,23.1043753125Q15.582563,23.165795312500002,15.53033,23.2180253125Q15.478097,23.270255312499998,15.416678,23.3112953125Q15.355258,23.3523353125,15.287013,23.380605312500002Q15.218767,23.4088753125,15.146318,23.4232853125Q15.0738685,23.4376953125,15,23.4376953125Q14.9261315,23.4376953125,14.853682,23.4232853125Q14.781233,23.4088753125,14.712987,23.380605312500002Q14.644742,23.3523353125,14.583322,23.3112953125Q14.521903,23.270255312499998,14.46967,23.2180253125Q14.417437,23.165795312500002,14.376398,23.1043753125Q14.335359,23.0429553125,14.30709,22.9747053125Q14.278822,22.9064653125,14.264410999999999,22.8340153125Q14.25,22.7615653125,14.25,22.6876953125L14.25,17.5126953125Z" fill-rule="evenodd" fill="#FFFFFF" fill-opacity="1"/></g><g><path d="M20.650390625,14.912109375Q20.650390625,14.838240875,20.664801625,14.765791375Q20.679212625,14.693342375,20.707480625,14.625096375Q20.735749625,14.556851375,20.776788625000002,14.495431375Q20.817827625,14.434012375,20.870060625,14.381779375Q20.922293625000002,14.329546375,20.983712625,14.288507375Q21.045132625,14.247468375,21.113377625,14.219199375Q21.181623625,14.190931375,21.254072625,14.176520374999999Q21.326522125,14.162109375,21.400390625,14.162109375Q21.474259125,14.162109375,21.546708625,14.176520374999999Q21.619157625,14.190931375,21.687403625,14.219199375Q21.755648625,14.247468375,21.817068625,14.288507375Q21.878487624999998,14.329546375,21.930720625,14.381779375Q21.982953625,14.434012375,22.023992624999998,14.495431375Q22.065031625,14.556851375,22.093300625,14.625096375Q22.121568625,14.693342375,22.135979625,14.765791375Q22.150390625,14.838240875,22.150390625,14.912109375L22.150390625,22.687109375Q22.150390625,22.760979374999998,22.135979625,22.833429375Q22.121568625,22.905879374999998,22.093300625,22.974119375Q22.065031625,23.042369375,22.023992624999998,23.103789374999998Q21.982953625,23.165209375,21.930720625,23.217439374999998Q21.878487624999998,23.269669375,21.817068625,23.310709375000002Q21.755648625,23.351749375,21.687403625,23.380019375Q21.619157625,23.408289375000003,21.546708625,23.422699375Q21.474259125,23.437109375,21.400390625,23.437109375Q21.326522125,23.437109375,21.254072625,23.422699375Q21.181623625,23.408289375000003,21.113377625,23.380019375Q21.045132625,23.351749375,20.983712625,23.310709375000002Q20.922293625000002,23.269669375,20.870060625,23.217439374999998Q20.817827625,23.165209375,20.776788625000002,23.103789374999998Q20.735749625,23.042369375,20.707480625,22.974119375Q20.679212625,22.905879374999998,20.664801625,22.833429375Q20.650390625,22.760979374999998,20.650390625,22.687109375L20.650390625,14.912109375Z" fill-rule="evenodd" fill="#FFFFFF" fill-opacity="1"/></g><g><path d="M21.970509375,7.798851Q22.057209375,7.697085,22.103409375,7.571635Q22.149609375,7.446184,22.149609375,7.3125Q22.149609375,7.2386315,22.135209375000002,7.166182Q22.120809375,7.093733,22.092509375,7.025487Q22.064209375,6.957242,22.023209375,6.895822Q21.982209375,6.834403,21.929909375,6.78217Q21.877709375000002,6.729937,21.816309375,6.688898Q21.754909375,6.647859,21.686609375,6.61959Q21.618409375,6.591322,21.545909375,6.576911Q21.473509375,6.5625,21.399609375,6.5625Q21.234809374999998,6.5625,21.085209374999998,6.631595Q20.935509375000002,6.70069,20.828709375000003,6.826149L20.828209375,6.826678L20.254809375,7.499881Q15.513539375,13.04059,8.418157375,14.80978Q8.357689375,14.824860000000001,8.300538375,14.84971Q8.243388375,14.874559999999999,8.191123375,14.9085Q8.138858375,14.942440000000001,8.092911375,14.984549999999999Q8.046965375,15.02665,8.008598375,15.075759999999999Q7.970230375,15.12487,7.940494375,15.17963Q7.910758375,15.2344,7.890469375,15.293330000000001Q7.870180375,15.35225,7.859895375,15.41372Q7.849609375,15.47518,7.849609375,15.5375Q7.849609375,15.61137,7.864020375,15.68382Q7.878431375,15.75627,7.906699375,15.82451Q7.934968375,15.89276,7.976007375,15.95418Q8.017046375,16.0156,8.069279375,16.06783Q8.121512375,16.120060000000002,8.182931375,16.161099999999998Q8.244351375,16.20214,8.312596375,16.23041Q8.380842375,16.25868,8.453291375,16.27309Q8.525740875,16.2875,8.599609375,16.2875Q8.691703375,16.2875,8.781061375,16.26522Q16.341579375000002,14.38005,21.394409375000002,8.47512L21.969709375,7.799803L21.970509375,7.798851L21.970509375,7.798851Z" fill-rule="evenodd" fill="#FFFFFF" fill-opacity="1"/></g><g><path d="M17.7373046875,6.5625L21.3998046875,6.5625Q21.4736746875,6.5625,21.5461246875,6.576911Q21.6185746875,6.591322,21.6868146875,6.61959Q21.7550646875,6.647859,21.8164846875,6.688898Q21.8779046875,6.729937,21.9301346875,6.78217Q21.9823646875,6.834403,22.0234046875,6.895822Q22.0644446875,6.957242,22.0927146875,7.025487Q22.1209846875,7.093733,22.1353946875,7.166182Q22.1498046875,7.2386315,22.1498046875,7.3125L22.1498046875,10.9625Q22.1498046875,11.03637,22.1353946875,11.10882Q22.1209846875,11.18127,22.0927146875,11.24951Q22.0644446875,11.31776,22.0234046875,11.37918Q21.9823646875,11.4406,21.9301346875,11.49283Q21.8779046875,11.54506,21.8164846875,11.5861Q21.7550646875,11.62714,21.6868146875,11.65541Q21.6185746875,11.683679999999999,21.5461246875,11.69809Q21.4736746875,11.7125,21.3998046875,11.7125Q21.325934687500002,11.7125,21.2534846875,11.69809Q21.1810346875,11.683679999999999,21.1127946875,11.65541Q21.0445446875,11.62714,20.983124687500002,11.5861Q20.9217146875,11.54506,20.8694746875,11.49283Q20.8172446875,11.4406,20.776204687499998,11.37918Q20.7351646875,11.31776,20.7068946875,11.24951Q20.6786246875,11.18127,20.6642146875,11.10882Q20.6498046875,11.03637,20.6498046875,10.9625L20.6498046875,8.0625L17.7373046875,8.0625Q17.6634361875,8.0625,17.5909866875,8.048089000000001Q17.5185376875,8.033678,17.4502916875,8.00541Q17.3820466875,7.977141,17.3206266875,7.936102Q17.259207687500002,7.895063,17.2069746875,7.84283Q17.1547416875,7.790597,17.113702687500002,7.729178Q17.0726636875,7.667758,17.0443946875,7.599513Q17.0161266875,7.531267,17.0017156875,7.458818Q16.9873046875,7.3863685,16.9873046875,7.3125Q16.9873046875,7.2386315,17.0017156875,7.166182Q17.0161266875,7.093733,17.0443946875,7.025487Q17.0726636875,6.957242,17.113702687500002,6.895822Q17.1547416875,6.834403,17.2069746875,6.78217Q17.259207687500002,6.729937,17.3206266875,6.688898Q17.3820466875,6.647859,17.4502916875,6.61959Q17.5185376875,6.591322,17.5909866875,6.576911Q17.6634361875,6.5625,17.7373046875,6.5625Z" fill-rule="evenodd" fill="#FFFFFF" fill-opacity="1"/></g><g><path d="M1.75,11.25L1.75,18.75Q1.75,23.7482,4.00092,25.9991Q6.25184,28.25,11.25,28.25L18.75,28.25Q23.7482,28.25,25.9991,25.9991Q28.25,23.7482,28.25,18.75L28.25,11.25Q28.25,6.25184,25.9991,4.00092Q23.7482,1.75,18.75,1.75L11.25,1.75Q6.25184,1.75,4.00092,4.00092Q1.75,6.25184,1.75,11.25ZM5.06158,24.9384Q3.25,23.1268,3.25,18.75L3.25,11.25Q3.25,6.87316,5.06158,5.06158Q6.87316,3.25,11.25,3.25L18.75,3.25Q23.1268,3.25,24.9384,5.06158Q26.75,6.87316,26.75,11.25L26.75,18.75Q26.75,23.1268,24.9384,24.9384Q23.1268,26.75,18.75,26.75L11.25,26.75Q6.87316,26.75,5.06158,24.9384Z" fill-rule="evenodd" fill="#FFFFFF" fill-opacity="1"/></g><g style="opacity:0;"></g></g></g></g></svg>