<svg xmlns="http://www.w3.org/2000/svg" xmlns:xlink="http://www.w3.org/1999/xlink" fill="none" version="1.1" viewBox="0 0 30 30"><g><g><g><g><path d="M19.9497,3.80025Q17.8995,1.75,15,1.75Q12.10051,1.75,10.05025,3.80025Q8,5.85051,7.999999,8.75Q7.999999,11.6495,10.05025,13.6997Q12.1005,15.75,15,15.75Q17.8995,15.75,19.9497,13.6997Q22,11.6495,22,8.75Q22,5.8505,19.9497,3.80025ZM11.11091,4.8609100000000005Q12.72183,3.25,15,3.249999Q17.27817,3.25,18.8891,4.8609100000000005Q20.5,6.471830000000001,20.5,8.75Q20.5,11.02817,18.8891,12.6391Q17.27817,14.25,15,14.25Q12.72183,14.25,11.11091,12.6391Q9.5,11.02818,9.499999,8.75Q9.5,6.471830000000001,11.11091,4.8609100000000005Z" fill-rule="evenodd" fill="#FFFFFF" fill-opacity="1"/></g><g><g><path d="M28.22913201171875,21.259840234374998Q28.33754201171875,20.164430234375,27.30529201171875,19.132182234375Q26.280232011718752,18.107122234375,25.18583201171875,18.219571234375Q24.31815201171875,18.308724234375,23.48218201171875,19.144695234375L19.05713441171875,23.569740234375Q18.57765901171875,24.049220234375,18.47165801171875,24.720560234375L18.23229701171875,26.420470234375Q18.11385701171875,27.249540234375,18.65715301171875,27.792840234375Q19.20044901171875,28.336130234375,20.03105201171875,28.217470234375L21.71699201171875,27.980190234375Q22.43344201171875,27.867170234375,22.88897201171875,27.384200234375L27.30529201171875,22.967880234375002Q28.14299201171875,22.130190234375,28.22913201171875,21.259840234374998ZM25.33914201171875,19.711715234375Q25.72396201171875,19.672175234375,26.24463201171875,20.192840234375Q26.77492201171875,20.723130234375,26.73642201171875,21.112100234375Q26.703102011718748,21.448750234374998,26.24463201171875,21.907220234375L21.81966201171875,26.332190234375Q21.80984201171875,26.342010234375,21.80040201171875,26.352180234375Q21.69555201171875,26.465100234375,21.50793201171875,26.494830234375L19.81892301171875,26.732550234375Q19.73078001171875,26.745140234375,19.71781301171875,26.732180234375Q19.70484701171875,26.719210234374998,19.71765701171875,26.629530234375L19.95330201171875,24.954500234375Q19.98323201171875,24.764970234375,20.11779201171875,24.630400234375L24.54284201171875,20.205350234375Q25.00182201171875,19.746375234375,25.33914201171875,19.711715234375Z" fill-rule="evenodd" fill="#FFFFFF" fill-opacity="1"/></g><g><path d="M24.09744182421875,20.111914859375Q24.32592282421875,20.934073859375,24.92688482421875,21.535035859375Q25.52798482421875,22.136135859375,26.35039482421875,22.364585859375Q26.40922482421875,22.380925859375,26.46464482421875,22.406575859375Q26.52006482421875,22.432215859375,26.57060482421875,22.466485859375Q26.62114482421875,22.500765859375,26.665474824218748,22.542765859375Q26.70980482421875,22.584755859375,26.74675482421875,22.633375859375Q26.78370482421875,22.681985859375,26.81230482421875,22.735945859375Q26.84090482421875,22.789895859375,26.86040482421875,22.847765859375Q26.879904824218748,22.905635859375,26.88978482421875,22.965895859375Q26.89965482421875,23.026155859375,26.89965482421875,23.087215859375Q26.89965482421875,23.161085859375,26.88524482421875,23.233535859375Q26.87083482421875,23.305985859375,26.84256482421875,23.374235859375Q26.81429482421875,23.442475859375,26.77326482421875,23.503895859375Q26.73222482421875,23.565315859375,26.67998482421875,23.617545859375Q26.62775482421875,23.669785859375,26.56633482421875,23.710825859375Q26.50491482421875,23.751855859375,26.43667482421875,23.780125859375Q26.36842482421875,23.808395859375,26.29597482421875,23.822805859375Q26.22352482421875,23.837215859375,26.14965482421875,23.837215859375Q26.04742482421875,23.837215859375,25.94892482421875,23.809855859375L25.94875482421875,23.809815859375L25.94827482421875,23.809675859374998Q24.74609482421875,23.475565859375,23.86622082421875,22.595695859375Q22.98610982421875,21.715585859375,22.65205682421875,20.512988859375Q22.62469482421875,20.414486859375,22.62469482421875,20.312255859375Q22.62469482421875,20.238387359375,22.63910582421875,20.165937859375Q22.65351682421875,20.093488859375,22.68178482421875,20.025242859375Q22.71005382421875,19.956997859375,22.751092824218752,19.895577859375Q22.79213182421875,19.834158859375002,22.84436482421875,19.781925859375Q22.896597824218752,19.729692859375,22.95801682421875,19.688653859375002Q23.01943682421875,19.647614859375,23.08768182421875,19.619345859375Q23.15592782421875,19.591077859375,23.22837682421875,19.576666859375Q23.30082632421875,19.562255859375,23.37469482421875,19.562255859375Q23.43575972421875,19.562255859375,23.49601982421875,19.572133859375Q23.55628082421875,19.582012859375,23.61414982421875,19.601508859375Q23.67201882421875,19.621004859375,23.72597182421875,19.649605859375Q23.77992482421875,19.678206859375,23.82853982421875,19.715158859375Q23.87715582421875,19.752110859375,23.91915282421875,19.796440859375Q23.96115082421875,19.840770859375,23.99542382421875,19.891309859375Q24.02969682421875,19.941849859375,24.05534382421875,19.997267859375Q24.08098982421875,20.052685859375,24.09733382421875,20.111523859375L24.09744182421875,20.111914859375Z" fill-rule="evenodd" fill="#FFFFFF" fill-opacity="1"/></g></g><g><path d="M18.4953953125,20.00532L18.496495312500002,20.00565Q18.6021953125,20.03749,18.7126953125,20.03749Q18.786595312499998,20.03749,18.8589953125,20.02308Q18.931495312499997,20.00867,18.999695312500002,19.9804Q19.067995312500003,19.95213,19.1293953125,19.91109Q19.1907953125,19.87005,19.2429953125,19.81782Q19.295295312500002,19.76559,19.3362953125,19.704168Q19.3772953125,19.642749,19.405595312499997,19.574503Q19.4338953125,19.506258,19.4482953125,19.433809Q19.4626953125,19.361359,19.4626953125,19.287491Q19.4626953125,19.227439,19.4530953125,19.168153Q19.4435953125,19.108867,19.4246953125,19.051856Q19.4058953125,18.994845,19.3781953125,18.941563Q19.3504953125,18.888281,19.3145953125,18.8400845Q19.2787953125,18.7918883,19.235795312500002,18.75000618989Q19.1926953125,18.7081241,19.1435953125,18.6736233Q19.094395312499998,18.639122,19.0403953125,18.612882Q18.9863953125,18.586642,18.9288953125,18.56933L18.9278953125,18.569043Q17.0373953125,18,15.0001953125,18Q10.287785312499999,18,6.9360153125,20.72937Q3.5126963125,23.51699,3.5126953125,27.5Q3.5126953125,27.57387,3.5271063125,27.64632Q3.5415173125,27.71877,3.5697853125,27.787010000000002Q3.5980543125,27.85526,3.6390933125,27.91668Q3.6801323125,27.978099999999998,3.7323653125,28.03033Q3.7845983125,28.08256,3.8460173125,28.1236Q3.9074373125,28.16464,3.9756823125,28.192909999999998Q4.0439283125,28.22118,4.1163773125,28.235590000000002Q4.1888268125,28.25,4.2626953125,28.25Q4.3365638125,28.25,4.4090133125,28.235590000000002Q4.4814623125,28.22118,4.5497083125,28.192909999999998Q4.6179533125,28.16464,4.6793733125,28.1236Q4.7407923125,28.08256,4.7930253125,28.03033Q4.8452583125,27.978099999999998,4.8862973125,27.91668Q4.9273363125,27.85526,4.9556053125,27.787010000000002Q4.9838733125,27.71877,4.9982843125,27.64632Q5.0126953125,27.57387,5.0126953125,27.5Q5.0126953125,24.22995,7.8831653125,21.89251Q10.8212653125,19.5,15.0001953125,19.5Q16.8163953125,19.5,18.4953953125,20.00532Z" fill-rule="evenodd" fill="#FFFFFF" fill-opacity="1"/></g><g style="opacity:0;"></g></g></g></g></svg>